# Extracted losslessly from Unity Mesh asset: C:/Users/slicc/Documents/Changing My Life/Game/Assets/_Project/Art/Environment/StarterIsland/Terrain/Data/MD_Water_Pond_Main.asset
o MD_Water_Pond_Main
v -7200 -17800 2650
v -7219.99359 -17355.9982 2650
v -7193.79501 -17356.3629 2650
v -7167.62848 -17360.144 2650
v -7141.7038 -17367.3355 2650
v -7116.22543 -17377.8641 2650
v -7091.3887 -17391.6199 2650
v -7067.38205 -17408.493 2650
v -7044.39774 -17428.3661 2650
v -7022.62268 -17451.1032 2650
v -7002.22549 -17476.5152 2650
v -6983.34045 -17504.3625 2650
v -6966.07895 -17534.4025 2650
v -6950.55084 -17566.4078 2650
v -6936.88736 -17600.1709 2650
v -6925.23499 -17635.4752 2650
v -6915.72037 -17672.0642 2650
v -6908.42285 -17709.6405 2650
v -6903.36227 -17747.8897 2650
v -6900.52872 -17786.5143 2650
v -6899.91608 -17825.235 2650
v -6901.53885 -17863.7756 2650
v -6905.41763 -17901.8524 2650
v -6911.54938 -17939.1693 2650
v -6919.89059 -17975.4364 2650
v -6930.36652 -18010.3821 2650
v -6942.89322 -18043.7454 2650
v -6957.39136 -18075.2563 2650
v -6973.7709 -18104.6432 2650
v -6991.91284 -18131.6528 2650
v -7011.65771 -18156.0837 2650
v -7032.82089 -18177.8 2650
v -7055.22232 -18196.6934 2650
v -7078.69797 -18212.645 2650
v -7103.09372 -18225.4944 2650
v -7128.24173 -18235.0693 2650
v -7153.9505 -18241.2476 2650
v -7180.00717 -18243.988 2650
v -7206.20117 -18243.3258 2650
v -7232.33261 -18239.3295 2650
v -7258.21381 -18232.0526 2650
v -7283.65479 -18221.5317 2650
v -7308.46252 -18207.8186 2650
v -7332.44934 -18191.0095 2650
v -7355.43976 -18171.2463 2650
v -7377.27356 -18148.6923 2650
v -7397.78519 -18123.5031 2650
v -7416.79916 -18095.8267 2650
v -7434.13696 -18065.8417 2650
v -7449.64676 -18033.7769 2650
v -7463.2225 -17999.913 2650
v -7474.80316 -17964.5477 2650
v -7484.3399 -17927.9633 2650
v -7491.76559 -17890.419 2650
v -7496.98944 -17852.1713 2650
v -7499.92142 -17813.5056 2650
v -7500.5127 -17774.7299 2650
v -7498.76862 -17736.1588 2650
v -7494.73572 -17698.0942 2650
v -7488.47046 -17660.8215 2650
v -7480.02396 -17624.617 2650
v -7469.44885 -17589.7629 2650
v -7456.8222 -17556.5247 2650
v -7442.2554 -17525.1434 2650
v -7425.88043 -17495.8252 2650
v -7407.827 -17468.7622 2650
v -7388.2103 -17444.1666 2650
v -7367.1463 -17422.2733 2650
v -7344.77615 -17403.3096 2650
v -7321.27686 -17387.4405 2650
v -7296.85135 -17374.7482 2650
v -7271.7041 -17365.2588 2650
v -7246.02509 -17358.9905 2650
v -7239.98871 -16911.9553 2650
v -7187.57629 -16911.7935 2650
v -7135.14023 -16918.7073 2650
v -7083.15964 -16932.8323 2650
v -7032.09152 -16953.9154 2650
v -6982.32956 -16981.5582 2650
v -6934.25674 -17015.4877 2650
v -6888.30795 -17055.5695 2650
v -6844.93484 -17101.5961 2650
v -6804.48303 -17153.0807 2650
v -6767.09976 -17209.2972 2650
v -6732.80487 -17269.5419 2650
v -6701.69373 -17333.371 2650
v -6674.10583 -17400.592 2650
v -6650.58289 -17471.0175 2650
v -6631.62155 -17544.2093 2650
v -6617.41028 -17619.455 2650
v -6607.77969 -17695.9656 2650
v -6602.4086 -17773.0896 2650
v -6601.11771 -17850.3616 2650
v -6603.99857 -17927.3544 2650
v -6611.29379 -18003.5461 2650
v -6623.15826 -18078.3096 2650
v -6639.52408 -18151.033 2650
v -6660.17761 -18221.1975 2650
v -6684.93347 -18288.298 2650
v -6713.72299 -18351.7151 2650
v -6746.49811 -18410.6934 2650
v -6783.04596 -18464.5477 2650
v -6822.91794 -18512.9181 2650
v -6865.54489 -18555.8197 2650
v -6910.44083 -18593.399 2650
v -6957.32117 -18625.5447 2650
v -7006.02188 -18651.7136 2650
v -7056.32095 -18671.1243 2650
v -7107.82623 -18683.2092 2650
v -7160.01587 -18687.9333 2650
v -7212.38861 -18685.7178 2650
v -7264.54926 -18677.0767 2650
v -7316.18042 -18662.2665 2650
v -7366.94946 -18641.2521 2650
v -7416.47797 -18613.9557 2650
v -7464.39133 -18580.5206 2650
v -7510.39352 -18541.3284 2650
v -7554.2366 -18496.7743 2650
v -7595.60242 -18447.0581 2650
v -7634.01718 -18392.2256 2650
v -7668.92242 -18332.4203 2650
v -7699.88632 -18268.1091 2650
v -7726.77612 -18200.0778 2650
v -7749.72 -18129.1641 2650
v -7768.86063 -18056.0074 2650
v -7784.09576 -17981.012 2650
v -7795.0325 -17904.5288 2650
v -7801.194 -17827.0721 2650
v -7802.31171 -17749.35 2650
v -7798.45886 -17672.1207 2650
v -7789.92996 -17596.0312 2650
v -7776.99966 -17521.6156 2650
v -7759.7908 -17449.3958 2650
v -7738.34229 -17379.9576 2650
v -7712.79068 -17313.858 2650
v -7683.45108 -17251.4908 2650
v -7650.7164 -17193.0573 2650
v -7614.87274 -17138.7695 2650
v -7576.0231 -17089.0839 2650
v -7534.19571 -17044.7678 2650
v -7489.54926 -17006.6284 2650
v -7442.47894 -16975.1343 2650
v -7393.5379 -16950.2213 2650
v -7343.2457 -16931.5002 2650
v -7291.9754 -16918.6951 2650
v -7259.9884 -16467.8284 2650
v -7181.3324 -16465.358 2650
v -7102.42004 -16474.1074 2650
v -7024.12033 -16494.6548 2650
v -6947.2374 -16526.3428 2650
v -6872.37549 -16568.1335 2650
v -6800.11826 -16619.4901 2650
v -6731.24542 -16680.4474 2650
v -6666.62598 -16750.8667 2650
v -6606.80389 -16829.7516 2650
v -6551.69601 -16915.3748 2650
v -6500.82703 -17006.1508 2650
v -6454.02298 -17101.4435 2650
v -6411.98578 -17201.5167 2650
v -6376.15776 -17306.6956 2650
v -6347.88361 -17416.5161 2650
v -6327.52724 -17529.6204 2650
v -6314.30588 -17644.4122 2650
v -6306.99081 -17759.787 2650
v -6304.89273 -17875.2716 2650
v -6308.30269 -17990.5396 2650
v -6318.08815 -18104.9225 2650
v -6334.88464 -18217.392 2650
v -6358.64334 -18326.9516 2650
v -6388.87787 -18432.8796 2650
v -6425.2655 -18534.4711 2650
v -6467.93594 -18630.5771 2650
v -6517.13486 -18719.5572 2650
v -6572.61734 -18799.9329 2650
v -6633.3847 -18871.2524 2650
v -6698.07358 -18934.2789 2650
v -6765.6517 -18990.123 2650
v -6835.79407 -19038.9557 2650
v -6908.61893 -19079.3839 2650
v -6984.07593 -19109.1461 2650
v -7061.55243 -19126.5991 2650
v -7140.02914 -19131.7947 2650
v -7218.55087 -19126.2451 2650
v -7296.5332 -19111.6638 2650
v -7373.65112 -19088.8077 2650
v -7449.52545 -19057.3471 2650
v -7523.59772 -19016.7282 2650
v -7595.31937 -18967.0395 2650
v -7664.37225 -18909.0851 2650
v -7730.57785 -18843.6325 2650
v -7793.48373 -18770.7169 2650
v -7852.07214 -18689.7675 2650
v -7905.00259 -18600.4684 2650
v -7951.31073 -18503.5507 2650
v -7990.99121 -18400.7446 2650
v -8024.86343 -18293.9163 2650
v -8053.74222 -18184.2148 2650
v -8077.55585 -18071.9559 2650
v -8095.18585 -17957.2556 2650
v -8105.16891 -17840.7608 2650
v -8106.68335 -17723.7549 2650
v -8099.99313 -17607.6889 2650
v -8086.04279 -17493.6493 2650
v -8065.64789 -17382.3517 2650
v -8039.04266 -17274.4965 2650
v -8006.12564 -17171.0205 2650
v -7967.05246 -17072.8104 2650
v -7922.52808 -16980.2414 2650
v -7873.46268 -16893.103 2650
v -7820.35751 -16811.264 2650
v -7763.04169 -16735.5026 2650
v -7701.0498 -16667.7017 2650
v -7634.31473 -16609.9686 2650
v -7563.53149 -16563.3392 2650
v -7489.89334 -16527.1454 2650
v -7414.46304 -16499.7101 2650
v -7337.77695 -16479.8264 2650
v -7279.99344 -16023.5748 2650
v -7175.04883 -16016.1224 2650
v -7069.34967 -16024.765 2650
v -6964.33868 -16050.9644 2650
v -6861.30524 -16093.335 2650
v -6761.07941 -16149.6597 2650
v -6664.45847 -16219.0033 2650
v -6572.7211 -16301.8356 2650
v -6487.38403 -16398.3032 2650
v -6409.22089 -16506.5796 2650
v -6337.54921 -16623.1659 2650
v -6270.79201 -16744.9661 2650
v -6208.12912 -16871.1807 2650
v -6150.85754 -17003.1952 2650
v -6102.07329 -17142.5781 2650
v -6064.68735 -17289.0671 2650
v -6039.33868 -17440.3107 2650
v -6023.99597 -17593.4128 2650
v -6015.62614 -17746.6675 2650
v -6012.52556 -17899.8566 2650
v -6015.37132 -18053.1326 2650
v -6026.25923 -18205.8228 2650
v -6046.78955 -18356.3889 2650
v -6076.99165 -18503.3539 2650
v -6115.91301 -18645.8603 2650
v -6163.03825 -18783.0704 2650
v -6218.97011 -18913.0463 2650
v -6284.63821 -19032.6416 2650
v -6359.84726 -19139.0488 2650
v -6442.65976 -19231.8405 2650
v -6530.31006 -19313.3972 2650
v -6620.8519 -19386.879 2650
v -6714.0419 -19453.1311 2650
v -6810.72083 -19509.2316 2650
v -6911.34415 -19550.119 2650
v -7015.05585 -19572.1313 2650
v -7120.047 -19575.531 2650
v -7224.67346 -19563.9709 2650
v -7328.16772 -19541.507 2650
v -7430.37949 -19509.8343 2650
v -7531.02264 -19468.0069 2650
v -7629.37622 -19414.4531 2650
v -7724.72687 -19349.0692 2650
v -7816.89148 -19273.3536 2650
v -7905.98755 -19188.6581 2650
v -7991.46042 -19094.5328 2650
v -8071.38367 -18989.0228 2650
v -8143.02597 -18870.723 2650
v -8204.51279 -18740.657 2650
v -8256.19812 -18602.1637 2650
v -8300.3479 -18458.8715 2650
v -8339.16626 -18312.6663 2650
v -8372.71042 -18163.4247 2650
v -8398.50311 -18010.5392 2650
v -8413.19656 -17854.631 2650
v -8414.91241 -17697.8363 2650
v -8404.29153 -17542.6651 2650
v -8383.53119 -17390.7928 2650
v -8354.47388 -17243.0008 2650
v -8317.52472 -17100.0809 2650
v -8272.24274 -16963.382 2650
v -8218.75381 -16834.1904 2650
v -8158.42667 -16712.5977 2650
v -8093.0748 -16597.3694 2650
v -8023.50159 -16487.4893 2650
v -7948.86932 -16384.1736 2650
v -7867.61246 -16291.2949 2650
v -7779.06876 -16213.3392 2650
v -7684.35898 -16152.3087 2650
v -7585.75363 -16106.2469 2650
v -7485.19363 -16070.8725 2650
v -7383.35495 -16043.1 2650
v -7300.00534 -15579.1534 2650
v -7168.71262 -15563.1546 2650
v -7035.81467 -15569.0979 2650
v -6903.56598 -15599.9237 2650
v -6773.93494 -15653.0777 2650
v -6647.99347 -15724.4583 2650
v -6526.77078 -15812.529 2650
v -6412.24899 -15918.573 2650
v -6306.90002 -16043.2953 2650
v -6211.76529 -16183.6166 2650
v -6125.07706 -16333.2413 2650
v -6043.34793 -16486.7233 2650
v -5964.60571 -16643.1381 2650
v -5891.05225 -16805.8777 2650
v -5828.44315 -16978.7323 2650
v -5782.21436 -17161.9446 2650
v -5753.40958 -17351.6998 2650
v -5737.90436 -17543.1564 2650
v -5729.66537 -17733.7906 2650
v -5725.30327 -17924.0097 2650
v -5726.12686 -18114.9384 2650
v -5736.26633 -18306.0883 2650
v -5758.93097 -18495.2728 2650
v -5794.31152 -18680.4001 2650
v -5840.72723 -18860.5743 2650
v -5897.39685 -19034.906 2650
v -5965.76614 -19200.3235 2650
v -6047.96257 -19351.3519 2650
v -6143.95485 -19483.1421 2650
v -6250.34676 -19595.4315 2650
v -6362.15744 -19693.3975 2650
v -6476.03683 -19783.6746 2650
v -6591.99066 -19868.3258 2650
v -6712.16202 -19941.98 2650
v -6837.9631 -19995.0287 2650
v -6968.26096 -20020.5185 2650
v -7100.07324 -20019.0994 2650
v -7230.74341 -19997.966 2650
v -7359.33685 -19965.0253 2650
v -7486.11755 -19923.5107 2650
v -7611.08093 -19871.4172 2650
v -7733.36487 -19805.4504 2650
v -7852.10571 -19725.1114 2650
v -7967.46216 -19632.9697 2650
v -8080.15366 -19531.2378 2650
v -8189.56451 -19418.5593 2650
v -8292.36984 -19290.564 2650
v -8383.64029 -19143.9194 2650
v -8460.08606 -18979.9835 2650
v -8522.72797 -18804.5883 2650
v -8576.28632 -18624.0997 2650
v -8625.31204 -18441.4429 2650
v -8670.12482 -18255.5923 2650
v -8706.0379 -18064.563 2650
v -8726.62888 -17868.7454 2650
v -8728.28751 -17671.4844 2650
v -8712.27722 -17476.8555 2650
v -8682.85675 -17287.3016 2650
v -8643.53561 -17103.537 2650
v -8594.97757 -16926.3092 2650
v -8536.13968 -16757.4753 2650
v -8467.04178 -16598.8052 2650
v -8390.08713 -16449.762 2650
v -8308.50906 -16307.2632 2650
v -8223.52219 -16168.692 2650
v -8133.10928 -16035.8459 2650
v -8033.78601 -15915.7684 2650
v -7923.80753 -15816.7511 2650
v -7804.88663 -15742.2974 2650
v -7680.95245 -15688.2507 2650
v -7555.27496 -15645.9702 2650
v -7428.63464 -15609.23 2650
v -7320.02716 -15134.5245 2650
v -7162.31155 -15105.5206 2650
v -7001.69754 -15105.5267 2650
v -6841.55579 -15139.6957 2650
v -6684.76562 -15203.7598 2650
v -6532.67136 -15290.8463 2650
v -6386.54823 -15398.5718 2650
v -6249.34311 -15529.4952 2650
v -6124.86229 -15685.2325 2650
v -6014.46915 -15860.9131 2650
v -5914.69841 -16046.1746 2650
v -5819.14215 -16232.1579 2650
v -5724.04556 -16417.8696 2650
v -5632.90062 -16609.8145 2650
v -5555.38025 -16815.2267 2650
v -5500.64392 -17035.228 2650
v -5470.30449 -17263.9664 2650
v -5457.08656 -17493.8248 2650
v -5450.46043 -17721.2173 2650
v -5444.51141 -17947.6227 2650
v -5441.49132 -18175.7599 2650
v -5448.56796 -18405.5603 2650
v -5471.36841 -18634.0134 2650
v -5510.34622 -18858.252 2650
v -5562.7655 -19077.4536 2650
v -5627.48795 -19290.7883 2650
v -5707.26471 -19493.6127 2650
v -5806.06384 -19677.0966 2650
v -5924.16 -19833.4534 2650
v -6056.04858 -19962.7747 2650
v -6193.51807 -20074.4965 2650
v -6331.2027 -20180.5222 2650
v -6469.56406 -20284.7946 2650
v -6612.77618 -20378.3585 2650
v -6763.77029 -20444.8578 2650
v -6921.09299 -20472.4762 2650
v -7080.10864 -20462.4588 2650
v -7236.7485 -20427.2949 2650
v -7389.92462 -20380.6396 2650
v -7540.61737 -20327.9999 2650
v -7689.34174 -20265.7684 2650
v -7835.11658 -20188.0356 2650
v -7976.95007 -20093.6707 2650
v -8115.5983 -19986.7706 2650
v -8252.76642 -19870.7642 2650
v -8387.82883 -19742.8436 2650
v -8515.44952 -19594.9631 2650
v -8627.49252 -19420.7916 2650
v -8718.62183 -19222.0856 2650
v -8790.91187 -19008.2703 2650
v -8852.7916 -18789.6667 2650
v -8912.36115 -18570.6253 2650
v -8970.36209 -18348.6374 2650
v -9018.84689 -18119.5145 2650
v -9046.81549 -17883.1635 2650
v -9048.09265 -17644.5908 2650
v -9024.87183 -17410.0586 2650
v -8984.47647 -17183.0154 2650
v -8932.89413 -16963.9313 2650
v -8871.14563 -16753.3417 2650
v -8797.26028 -16553.7354 2650
v -8711.06186 -16367.4667 2650
v -8616.44974 -16192.9382 2650
v -8518.71948 -16024.1913 2650
v -8419.64111 -15856.1157 2650
v -8315.36331 -15691.2735 2650
v -8199.47205 -15541.3422 2650
v -8068.52798 -15420.2148 2650
v -7925.03967 -15333.5632 2650
v -7775.32501 -15273.8831 2650
v -7624.54453 -15225.9888 2650
v -7473.54202 -15178.9291 2650
v -7340.06042 -14689.6423 2650
v -7155.83267 -14642.2882 2650
v -6966.88309 -14632.4707 2650
v -6778.06015 -14668.4433 2650
v -6593.43872 -14743.5684 2650
v -6414.66446 -14847.1405 2650
v -6243.28384 -14975.6332 2650
v -6083.51517 -15133.4396 2650
v -5940.95993 -15323.5016 2650
v -5817.3645 -15538.5239 2650
v -5706.83212 -15762.5366 2650
v -5598.82317 -15982.0038 2650
v -5487.04071 -16195.9305 2650
v -5376.7334 -16415.2603 2650
v -5282.99828 -16652.1286 2650
v -5220.15724 -16908.9981 2650
v -5190.58838 -17177.2812 2650
v -5182.59583 -17445.6055 2650
v -5179.36134 -17709.0103 2650
v -5171.43707 -17970.5856 2650
v -5162.38594 -18235.4004 2650
v -5163.62305 -18504.0802 2650
v -5184.16061 -18772.5815 2650
v -5224.83826 -19037.0682 2650
v -5281.47278 -19296.933 2650
v -5352.45895 -19551.5244 2650
v -5442.40608 -19794.1132 2650
v -5557.89642 -20011.2823 2650
v -5699.68185 -20191.2308 2650
v -5859.36813 -20334.6222 2650
v -6024.29504 -20456.9153 2650
v -6186.34682 -20577.4307 2650
v -6346.68808 -20702.7939 2650
v -6512.40005 -20819.0887 2650
v -6688.60397 -20900.5905 2650
v -6873.4787 -20928.717 2650
v -7060.15549 -20905.5664 2650
v -7242.67578 -20851.0254 2650
v -7419.81354 -20786.7676 2650
v -7593.63174 -20721.4645 2650
v -7765.44418 -20649.2462 2650
v -7934.1835 -20560.5286 2650
v -8098.75336 -20453.2486 2650
v -8260.81238 -20333.5938 2650
v -8423.51532 -20206.6208 2650
v -8586.28387 -20067.4438 2650
v -8741.04233 -19902.7878 2650
v -8875.23193 -19702.0782 2650
v -8980.71289 -19467.5156 2650
v -9061.07941 -19213.4567 2650
v -9129.97894 -18955.6412 2650
v -9200.49438 -18700.296 2650
v -9273.98911 -18442.7307 2650
v -9337.98294 -18175.5768 2650
v -9375.10986 -17897.9462 2650
v -9375.61493 -17617.0486 2650
v -9342.99622 -17342.0822 2650
v -9288.8504 -17077.7786 2650
v -9222.60818 -16824.1531 2650
v -9145.77103 -16581.34 2650
v -9055.0499 -16352.5955 2650
v -8949.96109 -16140.9836 2650
v -8836.45477 -15943.3273 2650
v -8722.66159 -15749.559 2650
v -8611.07635 -15551.0025 2650
v -8495.23544 -15351.2039 2650
v -8364.57443 -15168.2358 2650
v -8213.22632 -15023.7381 2650
v -8044.74258 -14926.3565 2650
v -7868.70651 -14863.8687 2650
v -7692.84058 -14811.9095 2650
v -7518.00232 -14752.9129 2650
v -7360.10742 -14244.4672 2650
v -7149.26147 -14172.525 2650
v -6931.25305 -14148.3459 2650
v -6712.83188 -14184.3262 2650
v -6499.59488 -14270.694 2650
v -6293.5257 -14391.6595 2650
v -6096.47064 -14542.2211 2650
v -5914.27841 -14729.2419 2650
v -5754.88281 -14957.4936 2650
v -5620.4834 -15216.4993 2650
v -5501.89667 -15482.8979 2650
v -5383.03757 -15736.9995 2650
v -5254.18434 -15977.8763 2650
v -5122.88094 -16222.464 2650
v -5011.41052 -16489.5065 2650
v -4940.93513 -16783.3374 2650
v -4914.8262 -17091.8228 2650
v -4915.48767 -17398.6832 2650
v -4917.72003 -17697.2275 2650
v -4907.36618 -17992.7917 2650
v -4889.73236 -18293.6615 2650
v -4881.89125 -18601.4893 2650
v -4897.36786 -18910.9512 2650
v -4937.53166 -19217.012 2650
v -4996.29364 -19519.4443 2650
v -5071.45462 -19817.9245 2650
v -5170.13092 -20103.0273 2650
v -5302.41699 -20355.3162 2650
v -5469.73991 -20557.7164 2650
v -5659.90868 -20711.7233 2650
v -5854.38995 -20840.8752 2650
v -6041.46461 -20974.411 2650
v -6223.2872 -21122.5784 2650
v -6410.86578 -21264.8987 2650
v -6612.30164 -21363.2126 2650
v -6825.34256 -21389.9551 2650
v -7040.2153 -21348.3795 2650
v -7248.51074 -21268.2251 2650
v -7448.8884 -21181.8283 2650
v -7644.91348 -21102.0645 2650
v -7839.02969 -21020.0378 2650
v -8030.11932 -20921.2463 2650
v -8217.00745 -20802.3514 2650
v -8402.61841 -20672.2778 2650
v -8592.08908 -20538.2004 2650
v -8784.96246 -20392.4072 2650
v -8969.56558 -20214.6133 2650
v -9127.50473 -19988.5117 2650
v -9246.95282 -19716.8304 2650
v -9333.56247 -19420.4041 2650
v -9407.95975 -19122.0917 2650
v -9489.89105 -18830.5344 2650
v -9581.56967 -18538.0508 2650
v -9664.50195 -18232.9346 2650
v -9712.86087 -17913.1546 2650
v -9712.14066 -17588.7497 2650
v -9667.57278 -17272.7264 2650
v -9596.43555 -16971.4294 2650
v -9512.73575 -16684.1751 2650
v -9418.59741 -16410.466 2650
v -9308.95386 -16154.4876 2650
v -9182.88574 -15920.163 2650
v -9049.04404 -15702.1301 2650
v -8919.29092 -15484.7748 2650
v -8797.04819 -15254.5975 2650
v -8672.32819 -15016.3879 2650
v -8528.99475 -14796.669 2650
v -8357.89795 -14627.3346 2650
v -8163.92136 -14520.9351 2650
v -7960.9314 -14458.9325 2650
v -7760.00061 -14404.7195 2650
v -7561.94077 -14331.8939 2650
v -7380.16891 -13798.9578 2650
v -7142.58652 -13695.2972 2650
v -6894.69299 -13651.5732 2650
v -6645.62225 -13685.5103 2650
v -6402.87399 -13783.3206 2650
v -6168.80798 -13922.7203 2650
v -5945.60165 -14096.8338 2650
v -5741.14647 -14315.7425 2650
v -5566.32004 -14586.5952 2650
v -5423.85788 -14894.8929 2650
v -5300.31128 -15207.8293 2650
v -5172.43423 -15497.8775 2650
v -5026.06888 -15764.2624 2650
v -4871.67435 -16031.6772 2650
v -4740.73105 -16327.4277 2650
v -4663.15804 -16658.3282 2650
v -4643.58215 -17007.7637 2650
v -4656.81686 -17353.2425 2650
v -4666.88766 -17685.9329 2650
v -4653.58429 -18014.1327 2650
v -4624.45259 -18350.3464 2650
v -4603.83072 -18697.6288 2650
v -4611.04851 -19049.0921 2650
v -4648.16818 -19398.2437 2650
v -4706.67267 -19745.4224 2650
v -4783.62312 -20090.7974 2650
v -4889.3795 -20421.5591 2650
v -5038.57956 -20710.6033 2650
v -5233.5537 -20934.1522 2650
v -5457.27272 -21094.8303 2650
v -5683.70667 -21226.5945 2650
v -5896.55228 -21371.4737 2650
v -6099.28665 -21544.4016 2650
v -6308.01048 -21716.5131 2650
v -6534.70078 -21833.7051 2650
v -6776.61057 -21856.9061 2650
v -7020.29037 -21790.8585 2650
v -7254.24194 -21677.9587 2650
v -7477.03247 -21564.2426 2650
v -7694.21387 -21467.9657 2650
v -7909.73816 -21376.3336 2650
v -8122.47543 -21268.5059 2650
v -8331.20499 -21139.4821 2650
v -8540.52887 -21001.6556 2650
v -8758.17719 -20864.8911 2650
v -8983.89664 -20717.7887 2650
v -9201.4389 -20531.0104 2650
v -9384.95941 -20280.8289 2650
v -9517.93289 -19970.5856 2650
v -9608.69141 -19629.3594 2650
v -9686.84921 -19289.0869 2650
v -9780.73349 -18961.4243 2650
v -9893.66837 -18634.7702 2650
v -9999.45755 -18291.777 2650
v -10061.4212 -17928.8513 2650
v -10058.9554 -17559.5856 2650
v -9999.52316 -17201.7944 2650
v -9907.69348 -16863.8123 2650
v -9803.3371 -16543.9682 2650
v -9689.36691 -16240.8783 2650
v -9558.41522 -15959.845 2650
v -9408.98285 -15705.8167 2650
v -9253.15704 -15470.549 2650
v -9107.56302 -15231.2439 2650
v -8976.77612 -14968.1458 2650
v -8846.24481 -14687.5793 2650
v -8692.63687 -14426.8631 2650
v -8502.54059 -14231.012 2650
v -8282.50046 -14117.5537 2650
v -8051.83334 -14059.8007 2650
v -7825.86212 -14005.4001 2650
v -7605.28336 -13916.5878 2650
vt 0.5 0.5
vt 0.555556417 0.5
vt 0.555363536 0.504843712
vt 0.554744363 0.509652913
vt 0.553700566 0.514389038
vt 0.552242517 0.519014716
vt 0.550384998 0.523494899
vt 0.548143208 0.527795494
vt 0.545532167 0.531881988
vt 0.542570472 0.535720885
vt 0.53928268 0.53928268
vt 0.53569895 0.542544305
vt 0.531850636 0.545487463
vt 0.527766764 0.548093498
vt 0.523473859 0.550339878
vt 0.518999815 0.552201569
vt 0.514377296 0.553656876
vt 0.509644032 0.554693878
vt 0.504839122 0.555311382
vt 0.5 0.555513799
vt 0.495161474 0.555304646
vt 0.490357846 0.554683387
vt 0.48562488 0.553648591
vt 0.480999529 0.552203357
vt 0.476517618 0.550358117
vt 0.472212672 0.548129022
vt 0.468116999 0.545533657
vt 0.464263558 0.542589009
vt 0.460686028 0.539313972
vt 0.457415342 0.535732746
vt 0.454475552 0.531876564
vt 0.451882809 0.527780473
vt 0.449649334 0.523478866
vt 0.44778946 0.519003093
vt 0.446322203 0.514382899
vt 0.445267826 0.509650767
vt 0.444640905 0.504843295
vt 0.444445312 0.5
vt 0.444675267 0.495159715
vt 0.445321262 0.490358651
vt 0.446375459 0.485631347
vt 0.447832227 0.481012493
vt 0.449684143 0.476537347
vt 0.451918155 0.472239912
vt 0.454515308 0.468151271
vt 0.457454413 0.464300007
vt 0.460715234 0.460715234
vt 0.464278072 0.457428277
vt 0.468119949 0.454470545
vt 0.472211242 0.451868445
vt 0.476516306 0.449639022
vt 0.480997562 0.447791249
vt 0.485619634 0.446331769
vt 0.49034977 0.445270807
vt 0.495155156 0.444623083
vt 0.5 0.444402695
vt 0.50484544 0.444616348
vt 0.509652078 0.445260316
vt 0.514382541 0.446323514
vt 0.519001782 0.447793067
vt 0.52347517 0.449657261
vt 0.527768254 0.451903999
vt 0.531847715 0.454516768
vt 0.535684407 0.45747298
vt 0.539253473 0.460746557
vt 0.542531431 0.464311928
vt 0.54549247 0.468145847
vt 0.548107862 0.472224921
vt 0.550350189 0.476521313
vt 0.552199781 0.481000841
vt 0.55364728 0.485625267
vt 0.554690897 0.490356535
vt 0.555329204 0.495159328
vt 0.611118078 0.5
vt 0.610843539 0.509697556
vt 0.609685421 0.519340515
vt 0.60762918 0.528839171
vt 0.604709327 0.538111091
vt 0.6009776 0.547086596
vt 0.596470416 0.555697203
vt 0.591206908 0.563863754
vt 0.585215449 0.571504295
vt 0.578558981 0.578558981
vt 0.571328878 0.585006416
vt 0.563613117 0.590848982
vt 0.555467606 0.596072733
vt 0.546918273 0.600616515
vt 0.537991762 0.604381561
vt 0.528745472 0.607279658
vt 0.519269347 0.609281838
vt 0.509661019 0.610426128
vt 0.5 0.610777199
vt 0.49034369 0.610372245
vt 0.480745465 0.609197915
vt 0.471272171 0.607213676
vt 0.462002963 0.604395986
vt 0.453013688 0.600762486
vt 0.444368154 0.596357167
vt 0.436128169 0.591218412
vt 0.428371072 0.585364044
vt 0.42119053 0.5788095
vt 0.414670974 0.571599543
vt 0.40885514 0.563820302
vt 0.403737605 0.555577159
vt 0.399297386 0.546958387
vt 0.395546675 0.538017869
vt 0.392552853 0.528790355
vt 0.390411854 0.519323349
vt 0.389192283 0.509694397
vt 0.388895869 0.5
vt 0.389466941 0.490329593
vt 0.390839279 0.480752021
vt 0.392978996 0.471323818
vt 0.395888716 0.462106586
vt 0.399575859 0.453171462
vt 0.404020339 0.444586098
vt 0.409173101 0.436402291
vt 0.414983392 0.428662568
vt 0.42142415 0.421424121
vt 0.428487182 0.414774299
vt 0.436151713 0.408815175
vt 0.444356501 0.403622627
vt 0.453003079 0.399214774
vt 0.461987317 0.39556095
vt 0.471230149 0.392629445
vt 0.480680853 0.390435636
vt 0.490293086 0.3890495
vt 0.5 0.38855496
vt 0.509711623 0.388995647
vt 0.519333959 0.390351743
vt 0.528787553 0.392563462
vt 0.538007438 0.395575404
vt 0.546928823 0.399360746
vt 0.555479288 0.40390709
vt 0.563589633 0.409184664
vt 0.571212769 0.415131986
vt 0.578325391 0.421674669
vt 0.584903121 0.428757876
vt 0.590888977 0.436358899
vt 0.596187711 0.444466025
vt 0.600699127 0.453043252
vt 0.604367316 0.462013453
vt 0.607203066 0.471275061
vt 0.609258056 0.480734885
vt 0.610568881 0.490326494
vt 0.66669029 0.5
vt 0.666556478 0.514571786
vt 0.665020108 0.529097497
vt 0.662013948 0.543411493
vt 0.657624602 0.557370663
vt 0.651985228 0.57087189
vt 0.645165741 0.583811462
vt 0.63716656 0.596045017
vt 0.628009617 0.607412875
vt 0.617822587 0.617822587
vt 0.606820822 0.627304077
vt 0.595199227 0.635958552
vt 0.583036482 0.643823445
vt 0.570303619 0.650766551
vt 0.556968033 0.6565184
vt 0.54309541 0.660834253
vt 0.528857291 0.663657844
vt 0.514448524 0.665147543
vt 0.5 0.665539682
vt 0.485567361 0.664965808
vt 0.471192628 0.663374662
vt 0.456964254 0.66061151
vt 0.443014175 0.656567216
vt 0.429466635 0.651259243
vt 0.416409194 0.644783497
vt 0.403927654 0.637205541
vt 0.392166406 0.628511071
vt 0.381331921 0.618668079
vt 0.371607125 0.607734442
vt 0.363042802 0.595898449
vt 0.355536342 0.58340615
vt 0.348942846 0.570439041
vt 0.343239397 0.557056189
vt 0.338600457 0.543246865
vt 0.335308313 0.529039562
vt 0.33356446 0.514561176
vt 0.333356917 0.5
vt 0.334491551 0.485519886
vt 0.336750865 0.471214771
vt 0.340038657 0.457138479
vt 0.34439376 0.443363965
vt 0.349882662 0.429999143
vt 0.356490642 0.417144805
vt 0.364115864 0.404852867
vt 0.372661501 0.39315027
vt 0.382120371 0.382120341
vt 0.392558277 0.371955901
vt 0.404007077 0.362907857
vt 0.416369855 0.355148286
vt 0.429430872 0.348663956
vt 0.442961335 0.343287528
vt 0.456822395 0.338858932
vt 0.470974565 0.335388601
vt 0.485396624 0.333082646
vt 0.5 0.332206309
vt 0.514619291 0.332900882
vt 0.529075384 0.335105449
vt 0.543237269 0.338636249
vt 0.557020903 0.343336344
vt 0.570339382 0.349156648
vt 0.583075881 0.356108367
vt 0.595119834 0.364154875
vt 0.606428981 0.373162955
vt 0.617034256 0.382965833
vt 0.626955271 0.393471926
vt 0.636093497 0.404706359
vt 0.644211531 0.416739494
vt 0.651045442 0.429566383
vt 0.656470299 0.44304952
vt 0.660575747 0.456973881
vt 0.663577616 0.471156895
vt 0.665629387 0.485509336
vt 0.722278178 0.5
vt 0.722618699 0.519476593
vt 0.72094506 0.538958609
vt 0.717082918 0.558167219
vt 0.711212754 0.57687515
vt 0.703615546 0.594947517
vt 0.694413185 0.612244546
vt 0.683553636 0.628525674
vt 0.671027541 0.64350915
vt 0.657067239 0.657067239
vt 0.642105758 0.669355035
vt 0.626520693 0.680690348
vt 0.610407472 0.69123143
vt 0.593600452 0.700726807
vt 0.575920761 0.708590567
vt 0.557417929 0.714286566
vt 0.538389206 0.717716038
vt 0.519184411 0.719279051
vt 0.5 0.719550729
vt 0.48085326 0.718848228
vt 0.461729139 0.71704483
vt 0.442723513 0.713758647
vt 0.424037099 0.708706319
vt 0.40585494 0.701894701
vt 0.388278574 0.693507135
vt 0.371409655 0.683646023
vt 0.355493575 0.672216058
vt 0.340928704 0.659071326
vt 0.328064054 0.644271374
vt 0.316942513 0.628178239
vt 0.307251036 0.61128366
vt 0.298584402 0.593921602
vt 0.290835321 0.576129675
vt 0.284373432 0.557776928
vt 0.279833466 0.53882128
vt 0.27766794 0.519451499
vt 0.27783373 0.49999997
vt 0.279865503 0.480740726
vt 0.283252746 0.461781591
vt 0.28778258 0.443136513
vt 0.293571532 0.42486617
vt 0.300812095 0.407117158
vt 0.309513032 0.390022248
vt 0.319486082 0.373602748
vt 0.330563366 0.357825726
vt 0.342797577 0.342797518
vt 0.356422424 0.32889083
vt 0.371597886 0.316622704
vt 0.388185292 0.306331217
vt 0.405770123 0.297923326
vt 0.42391181 0.290949374
vt 0.442387223 0.284986138
vt 0.461212248 0.280023694
vt 0.480448544 0.276525825
vt 0.5 0.275106281
vt 0.519589126 0.276094973
vt 0.538906097 0.279352516
vt 0.557754219 0.28445828
vt 0.57604605 0.291065127
vt 0.593685269 0.29909122
vt 0.610500813 0.308606982
vt 0.626332581 0.319578528
vt 0.641176999 0.331751883
vt 0.655198395 0.344801694
vt 0.668528318 0.35858804
vt 0.681010127 0.373255402
vt 0.692151248 0.389061481
vt 0.701387882 0.406091332
vt 0.708476484 0.424120814
vt 0.71367383 0.442746311
vt 0.71752584 0.461644381
vt 0.720421135 0.480715692
vt 0.777887046 0.5
vt 0.779146731 0.524422169
vt 0.777657151 0.54895848
vt 0.773064196 0.573167324
vt 0.765697896 0.596706092
vt 0.756076038 0.619410217
vt 0.744396806 0.641102552
vt 0.730510712 0.661405325
vt 0.714343727 0.679855764
vt 0.6962865 0.6962865
vt 0.677114785 0.711077154
vt 0.657489419 0.724918246
vt 0.637514651 0.738182366
vt 0.616779268 0.750433922
vt 0.594842076 0.760576487
vt 0.571703851 0.767602503
vt 0.547846377 0.771350443
vt 0.523851514 0.772623956
vt 0.5 0.77256006
vt 0.476222098 0.771782458
vt 0.45238474 0.770039499
vt 0.428572357 0.766571462
vt 0.40507561 0.760802507
vt 0.382157058 0.752714992
vt 0.359919101 0.742627203
vt 0.338468283 0.730691195
vt 0.318196446 0.71666503
vt 0.299799263 0.700200737
vt 0.283882052 0.681344509
vt 0.27045837 0.660726786
vt 0.258853644 0.63922596
vt 0.248220757 0.617406547
vt 0.238302186 0.595250189
vt 0.229780287 0.5724051
vt 0.223863408 0.548690319
vt 0.221413106 0.524373174
vt 0.222331479 0.49999997
vt 0.225705191 0.476002306
vt 0.230541706 0.45248723
vt 0.236438707 0.429378957
vt 0.243646428 0.406694919
vt 0.252571702 0.384622306
vt 0.2632716 0.363324732
vt 0.275426239 0.342751682
vt 0.288763463 0.322751403
vt 0.303449392 0.303449363
vt 0.320010573 0.285496891
vt 0.338835895 0.269833773
vt 0.35973689 0.257057101
vt 0.381991327 0.246929556
vt 0.404830903 0.238525018
vt 0.427915514 0.230976984
vt 0.451375216 0.224234998
vt 0.475431651 0.219182417
vt 0.5 0.217004478
vt 0.524641991 0.218340963
vt 0.54885596 0.222924098
vt 0.572360754 0.229945943
vt 0.595086813 0.238751054
vt 0.616944969 0.249210626
vt 0.637696862 0.261501998
vt 0.657121956 0.275606751
vt 0.675300777 0.291084796
vt 0.69263643 0.307363689
vt 0.709462345 0.324240327
vt 0.725542903 0.342073232
vt 0.739978909 0.361448199
vt 0.751725197 0.382618695
vt 0.760353684 0.405239075
vt 0.766405821 0.428616852
vt 0.770978868 0.452219158
vt 0.77485466 0.4759534
vt 0.833522141 0.5
vt 0.836256981 0.529418647
vt 0.835353076 0.559131801
vt 0.830185771 0.588473022
vt 0.821304381 0.616945207
vt 0.809574246 0.644356847
vt 0.795300603 0.670491874
vt 0.778180182 0.694783866
vt 0.75803268 0.716515124
vt 0.73547411 0.73547411
vt 0.71177882 0.752388179
vt 0.688017249 0.768516481
vt 0.664291978 0.784562051
vt 0.639810562 0.799824655
vt 0.613724172 0.812454641
vt 0.585944176 0.820747912
vt 0.557210147 0.824455142
vt 0.528432548 0.824985623
vt 0.5 0.824317098
vt 0.471694648 0.823531568
vt 0.443189234 0.822189808
vt 0.414533198 0.818966329
vt 0.386133641 0.81284517
vt 0.358351409 0.80376631
vt 0.331273526 0.792242765
vt 0.304997742 0.778492033
vt 0.280119002 0.762043953
vt 0.257762164 0.742237806
vt 0.238901377 0.71908778
vt 0.223494366 0.693611324
vt 0.210316151 0.667249084
vt 0.197850615 0.640894473
vt 0.185607761 0.614429355
vt 0.174729496 0.587155938
vt 0.167274505 0.558668435
vt 0.164710432 0.529334009
vt 0.166855454 0.49999997
vt 0.172127157 0.471314818
vt 0.17881453 0.443366319
vt 0.186235219 0.415926963
vt 0.194842607 0.388931781
vt 0.20536904 0.362611324
vt 0.217950344 0.337158471
vt 0.232078865 0.312399507
vt 0.247336432 0.287990004
vt 0.264069617 0.264069527
vt 0.283253729 0.241691798
vt 0.305632979 0.22241506
vt 0.330958664 0.207211763
vt 0.358065069 0.195619479
vt 0.385710776 0.185992837
vt 0.413398147 0.176797375
vt 0.441444755 0.167916581
vt 0.470328748 0.160855785
vt 0.5 0.157650486
vt 0.529798508 0.15940176
vt 0.558954716 0.165651292
vt 0.587079287 0.175015733
vt 0.614147067 0.186383381
vt 0.640096962 0.199561089
vt 0.664606869 0.214892477
vt 0.687382162 0.232390761
vt 0.708644152 0.25134775
vt 0.729166746 0.270833403
vt 0.749597728 0.290562749
vt 0.769595861 0.311227083
vt 0.787666559 0.33391577
vt 0.802055895 0.359149128
vt 0.812069535 0.386416048
vt 0.818680048 0.414609998
vt 0.823813021 0.442903101
vt 0.828840256 0.471230268
vt 0.889188707 0.5
vt 0.894065976 0.53447628
vt 0.894229591 0.569513321
vt 0.888675809 0.604145348
vt 0.87825644 0.637674093
vt 0.864317715 0.669884145
vt 0.847308636 0.700518727
vt 0.826704562 0.728761017
vt 0.802169204 0.753550053
vt 0.774623632 0.774623632
vt 0.7460289 0.793205798
vt 0.71801585 0.811358929
vt 0.69067353 0.830256224
vt 0.662664771 0.848835826
vt 0.63255918 0.864203334
vt 0.600129664 0.873688936
vt 0.566461861 0.876924098
vt 0.532910347 0.876167417
vt 0.49999997 0.874571502
vt 0.467291623 0.873858392
vt 0.434172392 0.873326838
vt 0.400628388 0.870859683
vt 0.367215067 0.86482352
vt 0.334416479 0.855094969
vt 0.302284688 0.842452943
vt 0.270892203 0.827199817
vt 0.241105154 0.808538854
vt 0.214635774 0.785364211
vt 0.192962259 0.757635236
vt 0.175954536 0.726899087
vt 0.161610603 0.695369244
vt 0.147472739 0.664386094
vt 0.1327198 0.633678973
vt 0.119129464 0.602053881
vt 0.109942839 0.568777561
vt 0.107470274 0.534341872
vt 0.111410901 0.49999997
vt 0.119247817 0.466688484
vt 0.128267974 0.434453607
vt 0.13740012 0.402841657
vt 0.14738436 0.371658415
vt 0.159411669 0.34118104
vt 0.173733383 0.311629772
vt 0.189586356 0.282645911
vt 0.206356838 0.253604025
vt 0.224651739 0.22465165
vt 0.246082991 0.197393388
vt 0.271900892 0.174240604
vt 0.301784664 0.156680882
vt 0.333961725 0.14392969
vt 0.366543531 0.133331224
vt 0.398825943 0.122413211
vt 0.431402206 0.11096248
vt 0.465122581 0.101349264
vt 0.5 0.0967936665
vt 0.53507942 0.09904024
vt 0.569232106 0.107365258
vt 0.601932168 0.119584017
vt 0.633230746 0.13395147
vt 0.663119555 0.150188863
vt 0.691173553 0.168877602
vt 0.717007339 0.190081671
vt 0.741051197 0.212726593
vt 0.764607787 0.235392377
vt 0.788774729 0.257689357
vt 0.81307292 0.28078413
vt 0.835186005 0.306480408
vt 0.852378845 0.335683137
vt 0.863591909 0.367663473
vt 0.870405138 0.400750339
vt 0.875904441 0.433717996
vt 0.882288396 0.466554165
vt 0.94489193 0.5
vt 0.952690005 0.53960526
vt 0.954483569 0.58013773
vt 0.948762298 0.620245516
vt 0.936778307 0.65897429
vt 0.920514047 0.69608891
vt 0.900604963 0.731289387
vt 0.876226366 0.763436556
vt 0.846827626 0.791022956
vt 0.813728809 0.813728809
vt 0.779796004 0.833447933
vt 0.747397125 0.853319705
vt 0.716593325 0.875150681
vt 0.68531251 0.897403955
vt 0.651339233 0.915801108
vt 0.614251196 0.926391184
vt 0.575582802 0.928651452
vt 0.537267745 0.9259727
vt 0.49999997 0.923072696
vt 0.463033766 0.922526002
vt 0.425363988 0.923281789
vt 0.386880368 0.922168016
vt 0.348323762 0.916726887
vt 0.310330689 0.906747043
vt 0.272895306 0.8933568
vt 0.236045808 0.876965642
vt 0.200998828 0.8563357
vt 0.170238569 0.829761446
vt 0.145905063 0.797120929
vt 0.127742961 0.760657191
vt 0.112708881 0.723602653
vt 0.0970857143 0.687881887
vt 0.0796060115 0.653010845
vt 0.062888667 0.617123544
vt 0.0517446995 0.579039454
vt 0.0496031269 0.539404571
vt 0.0560030453 0.49999997
vt 0.0671835914 0.462133437
vt 0.0790988952 0.425783753
vt 0.090161562 0.390184104
vt 0.101495981 0.354956388
vt 0.114907123 0.320428252
vt 0.130804658 0.28684485
vt 0.148091272 0.253590733
vt 0.165899247 0.21965608
vt 0.185189515 0.185189381
vt 0.208429262 0.152519435
vt 0.237551495 0.125184596
vt 0.272148907 0.105350249
vt 0.309651852 0.0917969793
vt 0.347321361 0.0805187225
vt 0.384189814 0.0677904189
vt 0.421228886 0.0532667376
vt 0.459796011 0.0404662751
vt 0.5 0.0341837853
vt 0.540505528 0.0370195881
vt 0.579717934 0.0478971265
vt 0.61694181 0.0635672659
vt 0.652341723 0.0814445615
vt 0.685991406 0.101140089
vt 0.717339754 0.12355642
vt 0.745891631 0.148830622
vt 0.772365689 0.175407439
vt 0.798778057 0.201222166
vt 0.826833546 0.225754231
vt 0.855878234 0.250811547
vt 0.882509351 0.279158264
vt 0.902692735 0.312221408
vt 0.914888442 0.348993063
vt 0.921489477 0.387062341
vt 0.927129388 0.424685657
vt 0.935109496 0.461932927
vt 1.00063717 0.5
vt 1.01224566 0.544815719
vt 1.01631165 0.591039658
vt 1.01067328 0.636834502
vt 0.997094274 0.680927515
vt 0.978370726 0.723067939
vt 0.955373645 0.762910128
vt 0.926888049 0.79891026
vt 0.892082632 0.82899642
vt 0.852783322 0.852783322
vt 0.813011229 0.873032272
vt 0.77607286 0.894272923
vt 0.74198544 0.919131041
vt 0.707724154 0.945465922
vt 0.670056522 0.967226446
vt 0.628299654 0.978820682
vt 0.584554255 0.979531229
vt 0.541487515 0.974204779
vt 0.49999997 0.969570279
vt 0.458941787 0.96929729
vt 0.416793823 0.971885741
vt 0.37331152 0.972807646
vt 0.329463691 0.968544543
vt 0.286072522 0.958768904
vt 0.243048221 0.945053518
vt 0.200352713 0.927940667
vt 0.159643933 0.905620515
vt 0.12438903 0.875611007
vt 0.0975699425 0.837678969
vt 0.0787635818 0.794952929
vt 0.063582994 0.751965523
vt 0.0466883183 0.711382627
vt 0.0262341499 0.672436595
vt 0.00591568928 0.632389426
vt -0.00744371396 0.58947593
vt -0.00898060761 0.544529974
vt 0.000637149788 0.49999997
vt 0.0160509106 0.4576599
vt 0.0315039158 0.417391479
vt 0.0447475426 0.378015459
vt 0.0574017055 0.338907391
vt 0.0720629245 0.300449669
vt 0.0893482715 0.262910008
vt 0.107736088 0.225333706
vt 0.126038224 0.186208695
vt 0.145676568 0.145676434
vt 0.170223638 0.106987707
vt 0.202496529 0.0751208887
vt 0.24198547 0.0531056002
vt 0.285105944 0.0391581133
vt 0.328036398 0.0275337435
vt 0.36948061 0.0128948772
vt 0.410906136 -0.00527660921
vt 0.454331815 -0.0219899993
vt 0.5 -0.0304297339
vt 0.546097577 -0.0268974658
vt 0.590442002 -0.0129220402
vt 0.632130623 0.00688178465
vt 0.671483874 0.0288518984
vt 0.708690763 0.0524610952
vt 0.743048191 0.0790280625
vt 0.773929298 0.108788773
vt 0.802431703 0.139576241
vt 0.831495881 0.168504328
vt 0.8636145 0.194891363
vt 0.897915721 0.221376583
vt 0.929608464 0.251965582
vt 0.952996194 0.288764536
vt 0.965926886 0.33041662
vt 0.971841514 0.373570561
vt 0.977364063 0.41582793
vt 0.987214088 0.457374394
vn 0 0 1
vn 0 0 1
vn 0 0 1
vn 0 0 1
vn 0 0 1
vn 0 0 1
vn 0 0 1
vn 0 0 1
vn 0 0 1
vn 0 0 1
vn 0 0 1
vn 0 0 1
vn 0 0 1
vn 0 0 1
vn 0 0 1
vn 0 0 1
vn 0 0 1
vn 0 0 1
vn 0 0 1
vn 0 0 1
vn 0 0 1
vn 0 0 1
vn 0 0 1
vn 0 0 1
vn 0 0 1
vn 0 0 1
vn 0 0 1
vn 0 0 1
vn 0 0 1
vn 0 0 1
vn 0 0 1
vn 0 0 1
vn 0 0 1
vn 0 0 1
vn 0 0 1
vn 0 0 1
vn 0 0 1
vn 0 0 1
vn 0 0 1
vn 0 0 1
vn 0 0 1
vn 0 0 1
vn 0 0 1
vn 0 0 1
vn 0 0 1
vn 0 0 1
vn 0 0 1
vn 0 0 1
vn 0 0 1
vn 0 0 1
vn 0 0 1
vn 0 0 1
vn 0 0 1
vn 0 0 1
vn 0 0 1
vn 0 0 1
vn 0 0 1
vn 0 0 1
vn 0 0 1
vn 0 0 1
vn 0 0 1
vn 0 0 1
vn 0 0 1
vn 0 0 1
vn 0 0 1
vn 0 0 1
vn 0 0 1
vn 0 0 1
vn 0 0 1
vn 0 0 1
vn 0 0 1
vn 0 0 1
vn 0 0 1
vn 0 0 1
vn 0 0 1
vn 0 0 1
vn 0 0 1
vn 0 0 1
vn 0 0 1
vn 0 0 1
vn 0 0 1
vn 0 0 1
vn 0 0 1
vn 0 0 1
vn 0 0 1
vn 0 0 1
vn 0 0 1
vn 0 0 1
vn 0 0 1
vn 0 0 1
vn 0 0 1
vn 0 0 1
vn 0 0 1
vn 0 0 1
vn 0 0 1
vn 0 0 1
vn 0 0 1
vn 0 0 1
vn 0 0 1
vn 0 0 1
vn 0 0 1
vn 0 0 1
vn 0 0 1
vn 0 0 1
vn 0 0 1
vn 0 0 1
vn 0 0 1
vn 0 0 1
vn 0 0 1
vn 0 0 1
vn 0 0 1
vn 0 0 1
vn 0 0 1
vn 0 0 1
vn 0 0 1
vn 0 0 1
vn 0 0 1
vn 0 0 1
vn 0 0 1
vn 0 0 1
vn 0 0 1
vn 0 0 1
vn 0 0 1
vn 0 0 1
vn 0 0 1
vn 0 0 1
vn 0 0 1
vn 0 0 1
vn 0 0 1
vn 0 0 1
vn 0 0 1
vn 0 0 1
vn 0 0 1
vn 0 0 1
vn 0 0 1
vn 0 0 1
vn 0 0 1
vn 0 0 1
vn 0 0 1
vn 0 0 1
vn 0 0 1
vn 0 0 1
vn 0 0 1
vn 0 0 1
vn 0 0 1
vn 0 0 1
vn 0 0 1
vn 0 0 1
vn 0 0 1
vn 0 0 1
vn 0 0 1
vn 0 0 1
vn 0 0 1
vn 0 0 1
vn 0 0 1
vn 0 0 1
vn 0 0 1
vn 0 0 1
vn 0 0 1
vn 0 0 1
vn 0 0 1
vn 0 0 1
vn 0 0 1
vn 0 0 1
vn 0 0 1
vn 0 0 1
vn 0 0 1
vn 0 0 1
vn 0 0 1
vn 0 0 1
vn 0 0 1
vn 0 0 1
vn 0 0 1
vn 0 0 1
vn 0 0 1
vn 0 0 1
vn 0 0 1
vn 0 0 1
vn 0 0 1
vn 0 0 1
vn 0 0 1
vn 0 0 1
vn 0 0 1
vn 0 0 1
vn 0 0 1
vn 0 0 1
vn 0 0 1
vn 0 0 1
vn 0 0 1
vn 0 0 1
vn 0 0 1
vn 0 0 1
vn 0 0 1
vn 0 0 1
vn 0 0 1
vn 0 0 1
vn 0 0 1
vn 0 0 1
vn 0 0 1
vn 0 0 1
vn 0 0 1
vn 0 0 1
vn 0 0 1
vn 0 0 1
vn 0 0 1
vn 0 0 1
vn 0 0 1
vn 0 0 1
vn 0 0 1
vn 0 0 1
vn 0 0 1
vn 0 0 1
vn 0 0 1
vn 0 0 1
vn 0 0 1
vn 0 0 1
vn 0 0 1
vn 0 0 1
vn 0 0 1
vn 0 0 1
vn 0 0 1
vn 0 0 1
vn 0 0 1
vn 0 0 1
vn 0 0 1
vn 0 0 1
vn 0 0 1
vn 0 0 1
vn 0 0 1
vn 0 0 1
vn 0 0 1
vn 0 0 1
vn 0 0 1
vn 0 0 1
vn 0 0 1
vn 0 0 1
vn 0 0 1
vn 0 0 1
vn 0 0 1
vn 0 0 1
vn 0 0 1
vn 0 0 1
vn 0 0 1
vn 0 0 1
vn 0 0 1
vn 0 0 1
vn 0 0 1
vn 0 0 1
vn 0 0 1
vn 0 0 1
vn 0 0 1
vn 0 0 1
vn 0 0 1
vn 0 0 1
vn 0 0 1
vn 0 0 1
vn 0 0 1
vn 0 0 1
vn 0 0 1
vn 0 0 1
vn 0 0 1
vn 0 0 1
vn 0 0 1
vn 0 0 1
vn 0 0 1
vn 0 0 1
vn 0 0 1
vn 0 0 1
vn 0 0 1
vn 0 0 1
vn 0 0 1
vn 0 0 1
vn 0 0 1
vn 0 0 1
vn 0 0 1
vn 0 0 1
vn 0 0 1
vn 0 0 1
vn 0 0 1
vn 0 0 1
vn 0 0 1
vn 0 0 1
vn 0 0 1
vn 0 0 1
vn 0 0 1
vn 0 0 1
vn 0 0 1
vn 0 0 1
vn 0 0 1
vn 0 0 1
vn 0 0 1
vn 0 0 1
vn 0 0 1
vn 0 0 1
vn 0 0 1
vn 0 0 1
vn 0 0 1
vn 0 0 1
vn 0 0 1
vn 0 0 1
vn 0 0 1
vn 0 0 1
vn 0 0 1
vn 0 0 1
vn 0 0 1
vn 0 0 1
vn 0 0 1
vn 0 0 1
vn 0 0 1
vn 0 0 1
vn 0 0 1
vn 0 0 1
vn 0 0 1
vn 0 0 1
vn 0 0 1
vn 0 0 1
vn 0 0 1
vn 0 0 1
vn 0 0 1
vn 0 0 1
vn 0 0 1
vn 0 0 1
vn 0 0 1
vn 0 0 1
vn 0 0 1
vn 0 0 1
vn 0 0 1
vn 0 0 1
vn 0 0 1
vn 0 0 1
vn 0 0 1
vn 0 0 1
vn 0 0 1
vn 0 0 1
vn 0 0 1
vn 0 0 1
vn 0 0 1
vn 0 0 1
vn 0 0 1
vn 0 0 1
vn 0 0 1
vn 0 0 1
vn 0 0 1
vn 0 0 1
vn 0 0 1
vn 0 0 1
vn 0 0 1
vn 0 0 1
vn 0 0 1
vn 0 0 1
vn 0 0 1
vn 0 0 1
vn 0 0 1
vn 0 0 1
vn 0 0 1
vn 0 0 1
vn 0 0 1
vn 0 0 1
vn 0 0 1
vn 0 0 1
vn 0 0 1
vn 0 0 1
vn 0 0 1
vn 0 0 1
vn 0 0 1
vn 0 0 1
vn 0 0 1
vn 0 0 1
vn 0 0 1
vn 0 0 1
vn 0 0 1
vn 0 0 1
vn 0 0 1
vn 0 0 1
vn 0 0 1
vn 0 0 1
vn 0 0 1
vn 0 0 1
vn 0 0 1
vn 0 0 1
vn 0 0 1
vn 0 0 1
vn 0 0 1
vn 0 0 1
vn 0 0 1
vn 0 0 1
vn 0 0 1
vn 0 0 1
vn 0 0 1
vn 0 0 1
vn 0 0 1
vn 0 0 1
vn 0 0 1
vn 0 0 1
vn 0 0 1
vn 0 0 1
vn 0 0 1
vn 0 0 1
vn 0 0 1
vn 0 0 1
vn 0 0 1
vn 0 0 1
vn 0 0 1
vn 0 0 1
vn 0 0 1
vn 0 0 1
vn 0 0 1
vn 0 0 1
vn 0 0 1
vn 0 0 1
vn 0 0 1
vn 0 0 1
vn 0 0 1
vn 0 0 1
vn 0 0 1
vn 0 0 1
vn 0 0 1
vn 0 0 1
vn 0 0 1
vn 0 0 1
vn 0 0 1
vn 0 0 1
vn 0 0 1
vn 0 0 1
vn 0 0 1
vn 0 0 1
vn 0 0 1
vn 0 0 1
vn 0 0 1
vn 0 0 1
vn 0 0 1
vn 0 0 1
vn 0 0 1
vn 0 0 1
vn 0 0 1
vn 0 0 1
vn 0 0 1
vn 0 0 1
vn 0 0 1
vn 0 0 1
vn 0 0 1
vn 0 0 1
vn 0 0 1
vn 0 0 1
vn 0 0 1
vn 0 0 1
vn 0 0 1
vn 0 0 1
vn 0 0 1
vn 0 0 1
vn 0 0 1
vn 0 0 1
vn 0 0 1
vn 0 0 1
vn 0 0 1
vn 0 0 1
vn 0 0 1
vn 0 0 1
vn 0 0 1
vn 0 0 1
vn 0 0 1
vn 0 0 1
vn 0 0 1
vn 0 0 1
vn 0 0 1
vn 0 0 1
vn 0 0 1
vn 0 0 1
vn 0 0 1
vn 0 0 1
vn 0 0 1
vn 0 0 1
vn 0 0 1
vn 0 0 1
vn 0 0 1
vn 0 0 1
vn 0 0 1
vn 0 0 1
vn 0 0 1
vn 0 0 1
vn 0 0 1
vn 0 0 1
vn 0 0 1
vn 0 0 1
vn 0 0 1
vn 0 0 1
vn 0 0 1
vn 0 0 1
vn 0 0 1
vn 0 0 1
vn 0 0 1
vn 0 0 1
vn 0 0 1
vn 0 0 1
vn 0 0 1
vn 0 0 1
vn 0 0 1
vn 0 0 1
vn 0 0 1
vn 0 0 1
vn 0 0 1
vn 0 0 1
vn 0 0 1
vn 0 0 1
vn 0 0 1
vn 0 0 1
vn 0 0 1
vn 0 0 1
vn 0 0 1
vn 0 0 1
vn 0 0 1
vn 0 0 1
vn 0 0 1
vn 0 0 1
vn 0 0 1
vn 0 0 1
vn 0 0 1
vn 0 0 1
vn 0 0 1
vn 0 0 1
vn 0 0 1
vn 0 0 1
vn 0 0 1
vn 0 0 1
vn 0 0 1
vn 0 0 1
vn 0 0 1
vn 0 0 1
vn 0 0 1
vn 0 0 1
vn 0 0 1
vn 0 0 1
vn 0 0 1
vn 0 0 1
vn 0 0 1
vn 0 0 1
vn 0 0 1
vn 0 0 1
vn 0 0 1
vn 0 0 1
vn 0 0 1
vn 0 0 1
vn 0 0 1
vn 0 0 1
vn 0 0 1
vn 0 0 1
vn 0 0 1
vn 0 0 1
vn 0 0 1
vn 0 0 1
vn 0 0 1
vn 0 0 1
vn 0 0 1
vn 0 0 1
vn 0 0 1
vn 0 0 1
vn 0 0 1
vn 0 0 1
vn 0 0 1
vn 0 0 1
vn 0 0 1
vn 0 0 1
vn 0 0 1
vn 0 0 1
vn 0 0 1
vn 0 0 1
vn 0 0 1
vn 0 0 1
vn 0 0 1
vn 0 0 1
vn 0 0 1
vn 0 0 1
vn 0 0 1
vn 0 0 1
vn 0 0 1
vn 0 0 1
vn 0 0 1
vn 0 0 1
vn 0 0 1
vn 0 0 1
vn 0 0 1
vn 0 0 1
vn 0 0 1
vn 0 0 1
vn 0 0 1
vn 0 0 1
vn 0 0 1
vn 0 0 1
vn 0 0 1
vn 0 0 1
vn 0 0 1
vn 0 0 1
vn 0 0 1
vn 0 0 1
vn 0 0 1
vn 0 0 1
vn 0 0 1
vn 0 0 1
vn 0 0 1
vn 0 0 1
vn 0 0 1
vn 0 0 1
vn 0 0 1
vn 0 0 1
vn 0 0 1
vn 0 0 1
vn 0 0 1
vn 0 0 1
vn 0 0 1
vn 0 0 1
vn 0 0 1
vn 0 0 1
vn 0 0 1
vn 0 0 1
vn 0 0 1
vn 0 0 1
vn 0 0 1
vn 0 0 1
vn 0 0 1
vn 0 0 1
vn 0 0 1
vn 0 0 1
vn 0 0 1
vn 0 0 1
vn 0 0 1
vn 0 0 1
vn 0 0 1
vn 0 0 1
vn 0 0 1
vn 0 0 1
vn 0 0 1
vn 0 0 1
vn 0 0 1
vn 0 0 1
vn 0 0 1
vn 0 0 1
vn 0 0 1
vn 0 0 1
vn 0 0 1
vn 0 0 1
vn 0 0 1
vn 0 0 1
vn 0 0 1
vn 0 0 1
vn 0 0 1
vn 0 0 1
vn 0 0 1
vn 0 0 1
vn 0 0 1
g MD_Water_Pond_Main_Submesh0
f 1/1/1 3/3/3 2/2/2
f 1/1/1 4/4/4 3/3/3
f 1/1/1 5/5/5 4/4/4
f 1/1/1 6/6/6 5/5/5
f 1/1/1 7/7/7 6/6/6
f 1/1/1 8/8/8 7/7/7
f 1/1/1 9/9/9 8/8/8
f 1/1/1 10/10/10 9/9/9
f 1/1/1 11/11/11 10/10/10
f 1/1/1 12/12/12 11/11/11
f 1/1/1 13/13/13 12/12/12
f 1/1/1 14/14/14 13/13/13
f 1/1/1 15/15/15 14/14/14
f 1/1/1 16/16/16 15/15/15
f 1/1/1 17/17/17 16/16/16
f 1/1/1 18/18/18 17/17/17
f 1/1/1 19/19/19 18/18/18
f 1/1/1 20/20/20 19/19/19
f 1/1/1 21/21/21 20/20/20
f 1/1/1 22/22/22 21/21/21
f 1/1/1 23/23/23 22/22/22
f 1/1/1 24/24/24 23/23/23
f 1/1/1 25/25/25 24/24/24
f 1/1/1 26/26/26 25/25/25
f 1/1/1 27/27/27 26/26/26
f 1/1/1 28/28/28 27/27/27
f 1/1/1 29/29/29 28/28/28
f 1/1/1 30/30/30 29/29/29
f 1/1/1 31/31/31 30/30/30
f 1/1/1 32/32/32 31/31/31
f 1/1/1 33/33/33 32/32/32
f 1/1/1 34/34/34 33/33/33
f 1/1/1 35/35/35 34/34/34
f 1/1/1 36/36/36 35/35/35
f 1/1/1 37/37/37 36/36/36
f 1/1/1 38/38/38 37/37/37
f 1/1/1 39/39/39 38/38/38
f 1/1/1 40/40/40 39/39/39
f 1/1/1 41/41/41 40/40/40
f 1/1/1 42/42/42 41/41/41
f 1/1/1 43/43/43 42/42/42
f 1/1/1 44/44/44 43/43/43
f 1/1/1 45/45/45 44/44/44
f 1/1/1 46/46/46 45/45/45
f 1/1/1 47/47/47 46/46/46
f 1/1/1 48/48/48 47/47/47
f 1/1/1 49/49/49 48/48/48
f 1/1/1 50/50/50 49/49/49
f 1/1/1 51/51/51 50/50/50
f 1/1/1 52/52/52 51/51/51
f 1/1/1 53/53/53 52/52/52
f 1/1/1 54/54/54 53/53/53
f 1/1/1 55/55/55 54/54/54
f 1/1/1 56/56/56 55/55/55
f 1/1/1 57/57/57 56/56/56
f 1/1/1 58/58/58 57/57/57
f 1/1/1 59/59/59 58/58/58
f 1/1/1 60/60/60 59/59/59
f 1/1/1 61/61/61 60/60/60
f 1/1/1 62/62/62 61/61/61
f 1/1/1 63/63/63 62/62/62
f 1/1/1 64/64/64 63/63/63
f 1/1/1 65/65/65 64/64/64
f 1/1/1 66/66/66 65/65/65
f 1/1/1 67/67/67 66/66/66
f 1/1/1 68/68/68 67/67/67
f 1/1/1 69/69/69 68/68/68
f 1/1/1 70/70/70 69/69/69
f 1/1/1 71/71/71 70/70/70
f 1/1/1 72/72/72 71/71/71
f 1/1/1 73/73/73 72/72/72
f 1/1/1 2/2/2 73/73/73
f 2/2/2 3/3/3 74/74/74
f 3/3/3 75/75/75 74/74/74
f 3/3/3 4/4/4 75/75/75
f 4/4/4 76/76/76 75/75/75
f 4/4/4 5/5/5 76/76/76
f 5/5/5 77/77/77 76/76/76
f 5/5/5 6/6/6 77/77/77
f 6/6/6 78/78/78 77/77/77
f 6/6/6 7/7/7 78/78/78
f 7/7/7 79/79/79 78/78/78
f 7/7/7 8/8/8 79/79/79
f 8/8/8 80/80/80 79/79/79
f 8/8/8 9/9/9 80/80/80
f 9/9/9 81/81/81 80/80/80
f 9/9/9 10/10/10 81/81/81
f 10/10/10 82/82/82 81/81/81
f 10/10/10 11/11/11 82/82/82
f 11/11/11 83/83/83 82/82/82
f 11/11/11 12/12/12 83/83/83
f 12/12/12 84/84/84 83/83/83
f 12/12/12 13/13/13 84/84/84
f 13/13/13 85/85/85 84/84/84
f 13/13/13 14/14/14 85/85/85
f 14/14/14 86/86/86 85/85/85
f 14/14/14 15/15/15 86/86/86
f 15/15/15 87/87/87 86/86/86
f 15/15/15 16/16/16 87/87/87
f 16/16/16 88/88/88 87/87/87
f 16/16/16 17/17/17 88/88/88
f 17/17/17 89/89/89 88/88/88
f 17/17/17 18/18/18 89/89/89
f 18/18/18 90/90/90 89/89/89
f 18/18/18 19/19/19 90/90/90
f 19/19/19 91/91/91 90/90/90
f 19/19/19 20/20/20 91/91/91
f 20/20/20 92/92/92 91/91/91
f 20/20/20 21/21/21 92/92/92
f 21/21/21 93/93/93 92/92/92
f 21/21/21 22/22/22 93/93/93
f 22/22/22 94/94/94 93/93/93
f 22/22/22 23/23/23 94/94/94
f 23/23/23 95/95/95 94/94/94
f 23/23/23 24/24/24 95/95/95
f 24/24/24 96/96/96 95/95/95
f 24/24/24 25/25/25 96/96/96
f 25/25/25 97/97/97 96/96/96
f 25/25/25 26/26/26 97/97/97
f 26/26/26 98/98/98 97/97/97
f 26/26/26 27/27/27 98/98/98
f 27/27/27 99/99/99 98/98/98
f 27/27/27 28/28/28 99/99/99
f 28/28/28 100/100/100 99/99/99
f 28/28/28 29/29/29 100/100/100
f 29/29/29 101/101/101 100/100/100
f 29/29/29 30/30/30 101/101/101
f 30/30/30 102/102/102 101/101/101
f 30/30/30 31/31/31 102/102/102
f 31/31/31 103/103/103 102/102/102
f 31/31/31 32/32/32 103/103/103
f 32/32/32 104/104/104 103/103/103
f 32/32/32 33/33/33 104/104/104
f 33/33/33 105/105/105 104/104/104
f 33/33/33 34/34/34 105/105/105
f 34/34/34 106/106/106 105/105/105
f 34/34/34 35/35/35 106/106/106
f 35/35/35 107/107/107 106/106/106
f 35/35/35 36/36/36 107/107/107
f 36/36/36 108/108/108 107/107/107
f 36/36/36 37/37/37 108/108/108
f 37/37/37 109/109/109 108/108/108
f 37/37/37 38/38/38 109/109/109
f 38/38/38 110/110/110 109/109/109
f 38/38/38 39/39/39 110/110/110
f 39/39/39 111/111/111 110/110/110
f 39/39/39 40/40/40 111/111/111
f 40/40/40 112/112/112 111/111/111
f 40/40/40 41/41/41 112/112/112
f 41/41/41 113/113/113 112/112/112
f 41/41/41 42/42/42 113/113/113
f 42/42/42 114/114/114 113/113/113
f 42/42/42 43/43/43 114/114/114
f 43/43/43 115/115/115 114/114/114
f 43/43/43 44/44/44 115/115/115
f 44/44/44 116/116/116 115/115/115
f 44/44/44 45/45/45 116/116/116
f 45/45/45 117/117/117 116/116/116
f 45/45/45 46/46/46 117/117/117
f 46/46/46 118/118/118 117/117/117
f 46/46/46 47/47/47 118/118/118
f 47/47/47 119/119/119 118/118/118
f 47/47/47 48/48/48 119/119/119
f 48/48/48 120/120/120 119/119/119
f 48/48/48 49/49/49 120/120/120
f 49/49/49 121/121/121 120/120/120
f 49/49/49 50/50/50 121/121/121
f 50/50/50 122/122/122 121/121/121
f 50/50/50 51/51/51 122/122/122
f 51/51/51 123/123/123 122/122/122
f 51/51/51 52/52/52 123/123/123
f 52/52/52 124/124/124 123/123/123
f 52/52/52 53/53/53 124/124/124
f 53/53/53 125/125/125 124/124/124
f 53/53/53 54/54/54 125/125/125
f 54/54/54 126/126/126 125/125/125
f 54/54/54 55/55/55 126/126/126
f 55/55/55 127/127/127 126/126/126
f 55/55/55 56/56/56 127/127/127
f 56/56/56 128/128/128 127/127/127
f 56/56/56 57/57/57 128/128/128
f 57/57/57 129/129/129 128/128/128
f 57/57/57 58/58/58 129/129/129
f 58/58/58 130/130/130 129/129/129
f 58/58/58 59/59/59 130/130/130
f 59/59/59 131/131/131 130/130/130
f 59/59/59 60/60/60 131/131/131
f 60/60/60 132/132/132 131/131/131
f 60/60/60 61/61/61 132/132/132
f 61/61/61 133/133/133 132/132/132
f 61/61/61 62/62/62 133/133/133
f 62/62/62 134/134/134 133/133/133
f 62/62/62 63/63/63 134/134/134
f 63/63/63 135/135/135 134/134/134
f 63/63/63 64/64/64 135/135/135
f 64/64/64 136/136/136 135/135/135
f 64/64/64 65/65/65 136/136/136
f 65/65/65 137/137/137 136/136/136
f 65/65/65 66/66/66 137/137/137
f 66/66/66 138/138/138 137/137/137
f 66/66/66 67/67/67 138/138/138
f 67/67/67 139/139/139 138/138/138
f 67/67/67 68/68/68 139/139/139
f 68/68/68 140/140/140 139/139/139
f 68/68/68 69/69/69 140/140/140
f 69/69/69 141/141/141 140/140/140
f 69/69/69 70/70/70 141/141/141
f 70/70/70 142/142/142 141/141/141
f 70/70/70 71/71/71 142/142/142
f 71/71/71 143/143/143 142/142/142
f 71/71/71 72/72/72 143/143/143
f 72/72/72 144/144/144 143/143/143
f 72/72/72 73/73/73 144/144/144
f 73/73/73 145/145/145 144/144/144
f 73/73/73 2/2/2 145/145/145
f 2/2/2 74/74/74 145/145/145
f 74/74/74 75/75/75 146/146/146
f 75/75/75 147/147/147 146/146/146
f 75/75/75 76/76/76 147/147/147
f 76/76/76 148/148/148 147/147/147
f 76/76/76 77/77/77 148/148/148
f 77/77/77 149/149/149 148/148/148
f 77/77/77 78/78/78 149/149/149
f 78/78/78 150/150/150 149/149/149
f 78/78/78 79/79/79 150/150/150
f 79/79/79 151/151/151 150/150/150
f 79/79/79 80/80/80 151/151/151
f 80/80/80 152/152/152 151/151/151
f 80/80/80 81/81/81 152/152/152
f 81/81/81 153/153/153 152/152/152
f 81/81/81 82/82/82 153/153/153
f 82/82/82 154/154/154 153/153/153
f 82/82/82 83/83/83 154/154/154
f 83/83/83 155/155/155 154/154/154
f 83/83/83 84/84/84 155/155/155
f 84/84/84 156/156/156 155/155/155
f 84/84/84 85/85/85 156/156/156
f 85/85/85 157/157/157 156/156/156
f 85/85/85 86/86/86 157/157/157
f 86/86/86 158/158/158 157/157/157
f 86/86/86 87/87/87 158/158/158
f 87/87/87 159/159/159 158/158/158
f 87/87/87 88/88/88 159/159/159
f 88/88/88 160/160/160 159/159/159
f 88/88/88 89/89/89 160/160/160
f 89/89/89 161/161/161 160/160/160
f 89/89/89 90/90/90 161/161/161
f 90/90/90 162/162/162 161/161/161
f 90/90/90 91/91/91 162/162/162
f 91/91/91 163/163/163 162/162/162
f 91/91/91 92/92/92 163/163/163
f 92/92/92 164/164/164 163/163/163
f 92/92/92 93/93/93 164/164/164
f 93/93/93 165/165/165 164/164/164
f 93/93/93 94/94/94 165/165/165
f 94/94/94 166/166/166 165/165/165
f 94/94/94 95/95/95 166/166/166
f 95/95/95 167/167/167 166/166/166
f 95/95/95 96/96/96 167/167/167
f 96/96/96 168/168/168 167/167/167
f 96/96/96 97/97/97 168/168/168
f 97/97/97 169/169/169 168/168/168
f 97/97/97 98/98/98 169/169/169
f 98/98/98 170/170/170 169/169/169
f 98/98/98 99/99/99 170/170/170
f 99/99/99 171/171/171 170/170/170
f 99/99/99 100/100/100 171/171/171
f 100/100/100 172/172/172 171/171/171
f 100/100/100 101/101/101 172/172/172
f 101/101/101 173/173/173 172/172/172
f 101/101/101 102/102/102 173/173/173
f 102/102/102 174/174/174 173/173/173
f 102/102/102 103/103/103 174/174/174
f 103/103/103 175/175/175 174/174/174
f 103/103/103 104/104/104 175/175/175
f 104/104/104 176/176/176 175/175/175
f 104/104/104 105/105/105 176/176/176
f 105/105/105 177/177/177 176/176/176
f 105/105/105 106/106/106 177/177/177
f 106/106/106 178/178/178 177/177/177
f 106/106/106 107/107/107 178/178/178
f 107/107/107 179/179/179 178/178/178
f 107/107/107 108/108/108 179/179/179
f 108/108/108 180/180/180 179/179/179
f 108/108/108 109/109/109 180/180/180
f 109/109/109 181/181/181 180/180/180
f 109/109/109 110/110/110 181/181/181
f 110/110/110 182/182/182 181/181/181
f 110/110/110 111/111/111 182/182/182
f 111/111/111 183/183/183 182/182/182
f 111/111/111 112/112/112 183/183/183
f 112/112/112 184/184/184 183/183/183
f 112/112/112 113/113/113 184/184/184
f 113/113/113 185/185/185 184/184/184
f 113/113/113 114/114/114 185/185/185
f 114/114/114 186/186/186 185/185/185
f 114/114/114 115/115/115 186/186/186
f 115/115/115 187/187/187 186/186/186
f 115/115/115 116/116/116 187/187/187
f 116/116/116 188/188/188 187/187/187
f 116/116/116 117/117/117 188/188/188
f 117/117/117 189/189/189 188/188/188
f 117/117/117 118/118/118 189/189/189
f 118/118/118 190/190/190 189/189/189
f 118/118/118 119/119/119 190/190/190
f 119/119/119 191/191/191 190/190/190
f 119/119/119 120/120/120 191/191/191
f 120/120/120 192/192/192 191/191/191
f 120/120/120 121/121/121 192/192/192
f 121/121/121 193/193/193 192/192/192
f 121/121/121 122/122/122 193/193/193
f 122/122/122 194/194/194 193/193/193
f 122/122/122 123/123/123 194/194/194
f 123/123/123 195/195/195 194/194/194
f 123/123/123 124/124/124 195/195/195
f 124/124/124 196/196/196 195/195/195
f 124/124/124 125/125/125 196/196/196
f 125/125/125 197/197/197 196/196/196
f 125/125/125 126/126/126 197/197/197
f 126/126/126 198/198/198 197/197/197
f 126/126/126 127/127/127 198/198/198
f 127/127/127 199/199/199 198/198/198
f 127/127/127 128/128/128 199/199/199
f 128/128/128 200/200/200 199/199/199
f 128/128/128 129/129/129 200/200/200
f 129/129/129 201/201/201 200/200/200
f 129/129/129 130/130/130 201/201/201
f 130/130/130 202/202/202 201/201/201
f 130/130/130 131/131/131 202/202/202
f 131/131/131 203/203/203 202/202/202
f 131/131/131 132/132/132 203/203/203
f 132/132/132 204/204/204 203/203/203
f 132/132/132 133/133/133 204/204/204
f 133/133/133 205/205/205 204/204/204
f 133/133/133 134/134/134 205/205/205
f 134/134/134 206/206/206 205/205/205
f 134/134/134 135/135/135 206/206/206
f 135/135/135 207/207/207 206/206/206
f 135/135/135 136/136/136 207/207/207
f 136/136/136 208/208/208 207/207/207
f 136/136/136 137/137/137 208/208/208
f 137/137/137 209/209/209 208/208/208
f 137/137/137 138/138/138 209/209/209
f 138/138/138 210/210/210 209/209/209
f 138/138/138 139/139/139 210/210/210
f 139/139/139 211/211/211 210/210/210
f 139/139/139 140/140/140 211/211/211
f 140/140/140 212/212/212 211/211/211
f 140/140/140 141/141/141 212/212/212
f 141/141/141 213/213/213 212/212/212
f 141/141/141 142/142/142 213/213/213
f 142/142/142 214/214/214 213/213/213
f 142/142/142 143/143/143 214/214/214
f 143/143/143 215/215/215 214/214/214
f 143/143/143 144/144/144 215/215/215
f 144/144/144 216/216/216 215/215/215
f 144/144/144 145/145/145 216/216/216
f 145/145/145 217/217/217 216/216/216
f 145/145/145 74/74/74 217/217/217
f 74/74/74 146/146/146 217/217/217
f 146/146/146 147/147/147 218/218/218
f 147/147/147 219/219/219 218/218/218
f 147/147/147 148/148/148 219/219/219
f 148/148/148 220/220/220 219/219/219
f 148/148/148 149/149/149 220/220/220
f 149/149/149 221/221/221 220/220/220
f 149/149/149 150/150/150 221/221/221
f 150/150/150 222/222/222 221/221/221
f 150/150/150 151/151/151 222/222/222
f 151/151/151 223/223/223 222/222/222
f 151/151/151 152/152/152 223/223/223
f 152/152/152 224/224/224 223/223/223
f 152/152/152 153/153/153 224/224/224
f 153/153/153 225/225/225 224/224/224
f 153/153/153 154/154/154 225/225/225
f 154/154/154 226/226/226 225/225/225
f 154/154/154 155/155/155 226/226/226
f 155/155/155 227/227/227 226/226/226
f 155/155/155 156/156/156 227/227/227
f 156/156/156 228/228/228 227/227/227
f 156/156/156 157/157/157 228/228/228
f 157/157/157 229/229/229 228/228/228
f 157/157/157 158/158/158 229/229/229
f 158/158/158 230/230/230 229/229/229
f 158/158/158 159/159/159 230/230/230
f 159/159/159 231/231/231 230/230/230
f 159/159/159 160/160/160 231/231/231
f 160/160/160 232/232/232 231/231/231
f 160/160/160 161/161/161 232/232/232
f 161/161/161 233/233/233 232/232/232
f 161/161/161 162/162/162 233/233/233
f 162/162/162 234/234/234 233/233/233
f 162/162/162 163/163/163 234/234/234
f 163/163/163 235/235/235 234/234/234
f 163/163/163 164/164/164 235/235/235
f 164/164/164 236/236/236 235/235/235
f 164/164/164 165/165/165 236/236/236
f 165/165/165 237/237/237 236/236/236
f 165/165/165 166/166/166 237/237/237
f 166/166/166 238/238/238 237/237/237
f 166/166/166 167/167/167 238/238/238
f 167/167/167 239/239/239 238/238/238
f 167/167/167 168/168/168 239/239/239
f 168/168/168 240/240/240 239/239/239
f 168/168/168 169/169/169 240/240/240
f 169/169/169 241/241/241 240/240/240
f 169/169/169 170/170/170 241/241/241
f 170/170/170 242/242/242 241/241/241
f 170/170/170 171/171/171 242/242/242
f 171/171/171 243/243/243 242/242/242
f 171/171/171 172/172/172 243/243/243
f 172/172/172 244/244/244 243/243/243
f 172/172/172 173/173/173 244/244/244
f 173/173/173 245/245/245 244/244/244
f 173/173/173 174/174/174 245/245/245
f 174/174/174 246/246/246 245/245/245
f 174/174/174 175/175/175 246/246/246
f 175/175/175 247/247/247 246/246/246
f 175/175/175 176/176/176 247/247/247
f 176/176/176 248/248/248 247/247/247
f 176/176/176 177/177/177 248/248/248
f 177/177/177 249/249/249 248/248/248
f 177/177/177 178/178/178 249/249/249
f 178/178/178 250/250/250 249/249/249
f 178/178/178 179/179/179 250/250/250
f 179/179/179 251/251/251 250/250/250
f 179/179/179 180/180/180 251/251/251
f 180/180/180 252/252/252 251/251/251
f 180/180/180 181/181/181 252/252/252
f 181/181/181 253/253/253 252/252/252
f 181/181/181 182/182/182 253/253/253
f 182/182/182 254/254/254 253/253/253
f 182/182/182 183/183/183 254/254/254
f 183/183/183 255/255/255 254/254/254
f 183/183/183 184/184/184 255/255/255
f 184/184/184 256/256/256 255/255/255
f 184/184/184 185/185/185 256/256/256
f 185/185/185 257/257/257 256/256/256
f 185/185/185 186/186/186 257/257/257
f 186/186/186 258/258/258 257/257/257
f 186/186/186 187/187/187 258/258/258
f 187/187/187 259/259/259 258/258/258
f 187/187/187 188/188/188 259/259/259
f 188/188/188 260/260/260 259/259/259
f 188/188/188 189/189/189 260/260/260
f 189/189/189 261/261/261 260/260/260
f 189/189/189 190/190/190 261/261/261
f 190/190/190 262/262/262 261/261/261
f 190/190/190 191/191/191 262/262/262
f 191/191/191 263/263/263 262/262/262
f 191/191/191 192/192/192 263/263/263
f 192/192/192 264/264/264 263/263/263
f 192/192/192 193/193/193 264/264/264
f 193/193/193 265/265/265 264/264/264
f 193/193/193 194/194/194 265/265/265
f 194/194/194 266/266/266 265/265/265
f 194/194/194 195/195/195 266/266/266
f 195/195/195 267/267/267 266/266/266
f 195/195/195 196/196/196 267/267/267
f 196/196/196 268/268/268 267/267/267
f 196/196/196 197/197/197 268/268/268
f 197/197/197 269/269/269 268/268/268
f 197/197/197 198/198/198 269/269/269
f 198/198/198 270/270/270 269/269/269
f 198/198/198 199/199/199 270/270/270
f 199/199/199 271/271/271 270/270/270
f 199/199/199 200/200/200 271/271/271
f 200/200/200 272/272/272 271/271/271
f 200/200/200 201/201/201 272/272/272
f 201/201/201 273/273/273 272/272/272
f 201/201/201 202/202/202 273/273/273
f 202/202/202 274/274/274 273/273/273
f 202/202/202 203/203/203 274/274/274
f 203/203/203 275/275/275 274/274/274
f 203/203/203 204/204/204 275/275/275
f 204/204/204 276/276/276 275/275/275
f 204/204/204 205/205/205 276/276/276
f 205/205/205 277/277/277 276/276/276
f 205/205/205 206/206/206 277/277/277
f 206/206/206 278/278/278 277/277/277
f 206/206/206 207/207/207 278/278/278
f 207/207/207 279/279/279 278/278/278
f 207/207/207 208/208/208 279/279/279
f 208/208/208 280/280/280 279/279/279
f 208/208/208 209/209/209 280/280/280
f 209/209/209 281/281/281 280/280/280
f 209/209/209 210/210/210 281/281/281
f 210/210/210 282/282/282 281/281/281
f 210/210/210 211/211/211 282/282/282
f 211/211/211 283/283/283 282/282/282
f 211/211/211 212/212/212 283/283/283
f 212/212/212 284/284/284 283/283/283
f 212/212/212 213/213/213 284/284/284
f 213/213/213 285/285/285 284/284/284
f 213/213/213 214/214/214 285/285/285
f 214/214/214 286/286/286 285/285/285
f 214/214/214 215/215/215 286/286/286
f 215/215/215 287/287/287 286/286/286
f 215/215/215 216/216/216 287/287/287
f 216/216/216 288/288/288 287/287/287
f 216/216/216 217/217/217 288/288/288
f 217/217/217 289/289/289 288/288/288
f 217/217/217 146/146/146 289/289/289
f 146/146/146 218/218/218 289/289/289
f 218/218/218 219/219/219 290/290/290
f 219/219/219 291/291/291 290/290/290
f 219/219/219 220/220/220 291/291/291
f 220/220/220 292/292/292 291/291/291
f 220/220/220 221/221/221 292/292/292
f 221/221/221 293/293/293 292/292/292
f 221/221/221 222/222/222 293/293/293
f 222/222/222 294/294/294 293/293/293
f 222/222/222 223/223/223 294/294/294
f 223/223/223 295/295/295 294/294/294
f 223/223/223 224/224/224 295/295/295
f 224/224/224 296/296/296 295/295/295
f 224/224/224 225/225/225 296/296/296
f 225/225/225 297/297/297 296/296/296
f 225/225/225 226/226/226 297/297/297
f 226/226/226 298/298/298 297/297/297
f 226/226/226 227/227/227 298/298/298
f 227/227/227 299/299/299 298/298/298
f 227/227/227 228/228/228 299/299/299
f 228/228/228 300/300/300 299/299/299
f 228/228/228 229/229/229 300/300/300
f 229/229/229 301/301/301 300/300/300
f 229/229/229 230/230/230 301/301/301
f 230/230/230 302/302/302 301/301/301
f 230/230/230 231/231/231 302/302/302
f 231/231/231 303/303/303 302/302/302
f 231/231/231 232/232/232 303/303/303
f 232/232/232 304/304/304 303/303/303
f 232/232/232 233/233/233 304/304/304
f 233/233/233 305/305/305 304/304/304
f 233/233/233 234/234/234 305/305/305
f 234/234/234 306/306/306 305/305/305
f 234/234/234 235/235/235 306/306/306
f 235/235/235 307/307/307 306/306/306
f 235/235/235 236/236/236 307/307/307
f 236/236/236 308/308/308 307/307/307
f 236/236/236 237/237/237 308/308/308
f 237/237/237 309/309/309 308/308/308
f 237/237/237 238/238/238 309/309/309
f 238/238/238 310/310/310 309/309/309
f 238/238/238 239/239/239 310/310/310
f 239/239/239 311/311/311 310/310/310
f 239/239/239 240/240/240 311/311/311
f 240/240/240 312/312/312 311/311/311
f 240/240/240 241/241/241 312/312/312
f 241/241/241 313/313/313 312/312/312
f 241/241/241 242/242/242 313/313/313
f 242/242/242 314/314/314 313/313/313
f 242/242/242 243/243/243 314/314/314
f 243/243/243 315/315/315 314/314/314
f 243/243/243 244/244/244 315/315/315
f 244/244/244 316/316/316 315/315/315
f 244/244/244 245/245/245 316/316/316
f 245/245/245 317/317/317 316/316/316
f 245/245/245 246/246/246 317/317/317
f 246/246/246 318/318/318 317/317/317
f 246/246/246 247/247/247 318/318/318
f 247/247/247 319/319/319 318/318/318
f 247/247/247 248/248/248 319/319/319
f 248/248/248 320/320/320 319/319/319
f 248/248/248 249/249/249 320/320/320
f 249/249/249 321/321/321 320/320/320
f 249/249/249 250/250/250 321/321/321
f 250/250/250 322/322/322 321/321/321
f 250/250/250 251/251/251 322/322/322
f 251/251/251 323/323/323 322/322/322
f 251/251/251 252/252/252 323/323/323
f 252/252/252 324/324/324 323/323/323
f 252/252/252 253/253/253 324/324/324
f 253/253/253 325/325/325 324/324/324
f 253/253/253 254/254/254 325/325/325
f 254/254/254 326/326/326 325/325/325
f 254/254/254 255/255/255 326/326/326
f 255/255/255 327/327/327 326/326/326
f 255/255/255 256/256/256 327/327/327
f 256/256/256 328/328/328 327/327/327
f 256/256/256 257/257/257 328/328/328
f 257/257/257 329/329/329 328/328/328
f 257/257/257 258/258/258 329/329/329
f 258/258/258 330/330/330 329/329/329
f 258/258/258 259/259/259 330/330/330
f 259/259/259 331/331/331 330/330/330
f 259/259/259 260/260/260 331/331/331
f 260/260/260 332/332/332 331/331/331
f 260/260/260 261/261/261 332/332/332
f 261/261/261 333/333/333 332/332/332
f 261/261/261 262/262/262 333/333/333
f 262/262/262 334/334/334 333/333/333
f 262/262/262 263/263/263 334/334/334
f 263/263/263 335/335/335 334/334/334
f 263/263/263 264/264/264 335/335/335
f 264/264/264 336/336/336 335/335/335
f 264/264/264 265/265/265 336/336/336
f 265/265/265 337/337/337 336/336/336
f 265/265/265 266/266/266 337/337/337
f 266/266/266 338/338/338 337/337/337
f 266/266/266 267/267/267 338/338/338
f 267/267/267 339/339/339 338/338/338
f 267/267/267 268/268/268 339/339/339
f 268/268/268 340/340/340 339/339/339
f 268/268/268 269/269/269 340/340/340
f 269/269/269 341/341/341 340/340/340
f 269/269/269 270/270/270 341/341/341
f 270/270/270 342/342/342 341/341/341
f 270/270/270 271/271/271 342/342/342
f 271/271/271 343/343/343 342/342/342
f 271/271/271 272/272/272 343/343/343
f 272/272/272 344/344/344 343/343/343
f 272/272/272 273/273/273 344/344/344
f 273/273/273 345/345/345 344/344/344
f 273/273/273 274/274/274 345/345/345
f 274/274/274 346/346/346 345/345/345
f 274/274/274 275/275/275 346/346/346
f 275/275/275 347/347/347 346/346/346
f 275/275/275 276/276/276 347/347/347
f 276/276/276 348/348/348 347/347/347
f 276/276/276 277/277/277 348/348/348
f 277/277/277 349/349/349 348/348/348
f 277/277/277 278/278/278 349/349/349
f 278/278/278 350/350/350 349/349/349
f 278/278/278 279/279/279 350/350/350
f 279/279/279 351/351/351 350/350/350
f 279/279/279 280/280/280 351/351/351
f 280/280/280 352/352/352 351/351/351
f 280/280/280 281/281/281 352/352/352
f 281/281/281 353/353/353 352/352/352
f 281/281/281 282/282/282 353/353/353
f 282/282/282 354/354/354 353/353/353
f 282/282/282 283/283/283 354/354/354
f 283/283/283 355/355/355 354/354/354
f 283/283/283 284/284/284 355/355/355
f 284/284/284 356/356/356 355/355/355
f 284/284/284 285/285/285 356/356/356
f 285/285/285 357/357/357 356/356/356
f 285/285/285 286/286/286 357/357/357
f 286/286/286 358/358/358 357/357/357
f 286/286/286 287/287/287 358/358/358
f 287/287/287 359/359/359 358/358/358
f 287/287/287 288/288/288 359/359/359
f 288/288/288 360/360/360 359/359/359
f 288/288/288 289/289/289 360/360/360
f 289/289/289 361/361/361 360/360/360
f 289/289/289 218/218/218 361/361/361
f 218/218/218 290/290/290 361/361/361
f 290/290/290 291/291/291 362/362/362
f 291/291/291 363/363/363 362/362/362
f 291/291/291 292/292/292 363/363/363
f 292/292/292 364/364/364 363/363/363
f 292/292/292 293/293/293 364/364/364
f 293/293/293 365/365/365 364/364/364
f 293/293/293 294/294/294 365/365/365
f 294/294/294 366/366/366 365/365/365
f 294/294/294 295/295/295 366/366/366
f 295/295/295 367/367/367 366/366/366
f 295/295/295 296/296/296 367/367/367
f 296/296/296 368/368/368 367/367/367
f 296/296/296 297/297/297 368/368/368
f 297/297/297 369/369/369 368/368/368
f 297/297/297 298/298/298 369/369/369
f 298/298/298 370/370/370 369/369/369
f 298/298/298 299/299/299 370/370/370
f 299/299/299 371/371/371 370/370/370
f 299/299/299 300/300/300 371/371/371
f 300/300/300 372/372/372 371/371/371
f 300/300/300 301/301/301 372/372/372
f 301/301/301 373/373/373 372/372/372
f 301/301/301 302/302/302 373/373/373
f 302/302/302 374/374/374 373/373/373
f 302/302/302 303/303/303 374/374/374
f 303/303/303 375/375/375 374/374/374
f 303/303/303 304/304/304 375/375/375
f 304/304/304 376/376/376 375/375/375
f 304/304/304 305/305/305 376/376/376
f 305/305/305 377/377/377 376/376/376
f 305/305/305 306/306/306 377/377/377
f 306/306/306 378/378/378 377/377/377
f 306/306/306 307/307/307 378/378/378
f 307/307/307 379/379/379 378/378/378
f 307/307/307 308/308/308 379/379/379
f 308/308/308 380/380/380 379/379/379
f 308/308/308 309/309/309 380/380/380
f 309/309/309 381/381/381 380/380/380
f 309/309/309 310/310/310 381/381/381
f 310/310/310 382/382/382 381/381/381
f 310/310/310 311/311/311 382/382/382
f 311/311/311 383/383/383 382/382/382
f 311/311/311 312/312/312 383/383/383
f 312/312/312 384/384/384 383/383/383
f 312/312/312 313/313/313 384/384/384
f 313/313/313 385/385/385 384/384/384
f 313/313/313 314/314/314 385/385/385
f 314/314/314 386/386/386 385/385/385
f 314/314/314 315/315/315 386/386/386
f 315/315/315 387/387/387 386/386/386
f 315/315/315 316/316/316 387/387/387
f 316/316/316 388/388/388 387/387/387
f 316/316/316 317/317/317 388/388/388
f 317/317/317 389/389/389 388/388/388
f 317/317/317 318/318/318 389/389/389
f 318/318/318 390/390/390 389/389/389
f 318/318/318 319/319/319 390/390/390
f 319/319/319 391/391/391 390/390/390
f 319/319/319 320/320/320 391/391/391
f 320/320/320 392/392/392 391/391/391
f 320/320/320 321/321/321 392/392/392
f 321/321/321 393/393/393 392/392/392
f 321/321/321 322/322/322 393/393/393
f 322/322/322 394/394/394 393/393/393
f 322/322/322 323/323/323 394/394/394
f 323/323/323 395/395/395 394/394/394
f 323/323/323 324/324/324 395/395/395
f 324/324/324 396/396/396 395/395/395
f 324/324/324 325/325/325 396/396/396
f 325/325/325 397/397/397 396/396/396
f 325/325/325 326/326/326 397/397/397
f 326/326/326 398/398/398 397/397/397
f 326/326/326 327/327/327 398/398/398
f 327/327/327 399/399/399 398/398/398
f 327/327/327 328/328/328 399/399/399
f 328/328/328 400/400/400 399/399/399
f 328/328/328 329/329/329 400/400/400
f 329/329/329 401/401/401 400/400/400
f 329/329/329 330/330/330 401/401/401
f 330/330/330 402/402/402 401/401/401
f 330/330/330 331/331/331 402/402/402
f 331/331/331 403/403/403 402/402/402
f 331/331/331 332/332/332 403/403/403
f 332/332/332 404/404/404 403/403/403
f 332/332/332 333/333/333 404/404/404
f 333/333/333 405/405/405 404/404/404
f 333/333/333 334/334/334 405/405/405
f 334/334/334 406/406/406 405/405/405
f 334/334/334 335/335/335 406/406/406
f 335/335/335 407/407/407 406/406/406
f 335/335/335 336/336/336 407/407/407
f 336/336/336 408/408/408 407/407/407
f 336/336/336 337/337/337 408/408/408
f 337/337/337 409/409/409 408/408/408
f 337/337/337 338/338/338 409/409/409
f 338/338/338 410/410/410 409/409/409
f 338/338/338 339/339/339 410/410/410
f 339/339/339 411/411/411 410/410/410
f 339/339/339 340/340/340 411/411/411
f 340/340/340 412/412/412 411/411/411
f 340/340/340 341/341/341 412/412/412
f 341/341/341 413/413/413 412/412/412
f 341/341/341 342/342/342 413/413/413
f 342/342/342 414/414/414 413/413/413
f 342/342/342 343/343/343 414/414/414
f 343/343/343 415/415/415 414/414/414
f 343/343/343 344/344/344 415/415/415
f 344/344/344 416/416/416 415/415/415
f 344/344/344 345/345/345 416/416/416
f 345/345/345 417/417/417 416/416/416
f 345/345/345 346/346/346 417/417/417
f 346/346/346 418/418/418 417/417/417
f 346/346/346 347/347/347 418/418/418
f 347/347/347 419/419/419 418/418/418
f 347/347/347 348/348/348 419/419/419
f 348/348/348 420/420/420 419/419/419
f 348/348/348 349/349/349 420/420/420
f 349/349/349 421/421/421 420/420/420
f 349/349/349 350/350/350 421/421/421
f 350/350/350 422/422/422 421/421/421
f 350/350/350 351/351/351 422/422/422
f 351/351/351 423/423/423 422/422/422
f 351/351/351 352/352/352 423/423/423
f 352/352/352 424/424/424 423/423/423
f 352/352/352 353/353/353 424/424/424
f 353/353/353 425/425/425 424/424/424
f 353/353/353 354/354/354 425/425/425
f 354/354/354 426/426/426 425/425/425
f 354/354/354 355/355/355 426/426/426
f 355/355/355 427/427/427 426/426/426
f 355/355/355 356/356/356 427/427/427
f 356/356/356 428/428/428 427/427/427
f 356/356/356 357/357/357 428/428/428
f 357/357/357 429/429/429 428/428/428
f 357/357/357 358/358/358 429/429/429
f 358/358/358 430/430/430 429/429/429
f 358/358/358 359/359/359 430/430/430
f 359/359/359 431/431/431 430/430/430
f 359/359/359 360/360/360 431/431/431
f 360/360/360 432/432/432 431/431/431
f 360/360/360 361/361/361 432/432/432
f 361/361/361 433/433/433 432/432/432
f 361/361/361 290/290/290 433/433/433
f 290/290/290 362/362/362 433/433/433
f 362/362/362 363/363/363 434/434/434
f 363/363/363 435/435/435 434/434/434
f 363/363/363 364/364/364 435/435/435
f 364/364/364 436/436/436 435/435/435
f 364/364/364 365/365/365 436/436/436
f 365/365/365 437/437/437 436/436/436
f 365/365/365 366/366/366 437/437/437
f 366/366/366 438/438/438 437/437/437
f 366/366/366 367/367/367 438/438/438
f 367/367/367 439/439/439 438/438/438
f 367/367/367 368/368/368 439/439/439
f 368/368/368 440/440/440 439/439/439
f 368/368/368 369/369/369 440/440/440
f 369/369/369 441/441/441 440/440/440
f 369/369/369 370/370/370 441/441/441
f 370/370/370 442/442/442 441/441/441
f 370/370/370 371/371/371 442/442/442
f 371/371/371 443/443/443 442/442/442
f 371/371/371 372/372/372 443/443/443
f 372/372/372 444/444/444 443/443/443
f 372/372/372 373/373/373 444/444/444
f 373/373/373 445/445/445 444/444/444
f 373/373/373 374/374/374 445/445/445
f 374/374/374 446/446/446 445/445/445
f 374/374/374 375/375/375 446/446/446
f 375/375/375 447/447/447 446/446/446
f 375/375/375 376/376/376 447/447/447
f 376/376/376 448/448/448 447/447/447
f 376/376/376 377/377/377 448/448/448
f 377/377/377 449/449/449 448/448/448
f 377/377/377 378/378/378 449/449/449
f 378/378/378 450/450/450 449/449/449
f 378/378/378 379/379/379 450/450/450
f 379/379/379 451/451/451 450/450/450
f 379/379/379 380/380/380 451/451/451
f 380/380/380 452/452/452 451/451/451
f 380/380/380 381/381/381 452/452/452
f 381/381/381 453/453/453 452/452/452
f 381/381/381 382/382/382 453/453/453
f 382/382/382 454/454/454 453/453/453
f 382/382/382 383/383/383 454/454/454
f 383/383/383 455/455/455 454/454/454
f 383/383/383 384/384/384 455/455/455
f 384/384/384 456/456/456 455/455/455
f 384/384/384 385/385/385 456/456/456
f 385/385/385 457/457/457 456/456/456
f 385/385/385 386/386/386 457/457/457
f 386/386/386 458/458/458 457/457/457
f 386/386/386 387/387/387 458/458/458
f 387/387/387 459/459/459 458/458/458
f 387/387/387 388/388/388 459/459/459
f 388/388/388 460/460/460 459/459/459
f 388/388/388 389/389/389 460/460/460
f 389/389/389 461/461/461 460/460/460
f 389/389/389 390/390/390 461/461/461
f 390/390/390 462/462/462 461/461/461
f 390/390/390 391/391/391 462/462/462
f 391/391/391 463/463/463 462/462/462
f 391/391/391 392/392/392 463/463/463
f 392/392/392 464/464/464 463/463/463
f 392/392/392 393/393/393 464/464/464
f 393/393/393 465/465/465 464/464/464
f 393/393/393 394/394/394 465/465/465
f 394/394/394 466/466/466 465/465/465
f 394/394/394 395/395/395 466/466/466
f 395/395/395 467/467/467 466/466/466
f 395/395/395 396/396/396 467/467/467
f 396/396/396 468/468/468 467/467/467
f 396/396/396 397/397/397 468/468/468
f 397/397/397 469/469/469 468/468/468
f 397/397/397 398/398/398 469/469/469
f 398/398/398 470/470/470 469/469/469
f 398/398/398 399/399/399 470/470/470
f 399/399/399 471/471/471 470/470/470
f 399/399/399 400/400/400 471/471/471
f 400/400/400 472/472/472 471/471/471
f 400/400/400 401/401/401 472/472/472
f 401/401/401 473/473/473 472/472/472
f 401/401/401 402/402/402 473/473/473
f 402/402/402 474/474/474 473/473/473
f 402/402/402 403/403/403 474/474/474
f 403/403/403 475/475/475 474/474/474
f 403/403/403 404/404/404 475/475/475
f 404/404/404 476/476/476 475/475/475
f 404/404/404 405/405/405 476/476/476
f 405/405/405 477/477/477 476/476/476
f 405/405/405 406/406/406 477/477/477
f 406/406/406 478/478/478 477/477/477
f 406/406/406 407/407/407 478/478/478
f 407/407/407 479/479/479 478/478/478
f 407/407/407 408/408/408 479/479/479
f 408/408/408 480/480/480 479/479/479
f 408/408/408 409/409/409 480/480/480
f 409/409/409 481/481/481 480/480/480
f 409/409/409 410/410/410 481/481/481
f 410/410/410 482/482/482 481/481/481
f 410/410/410 411/411/411 482/482/482
f 411/411/411 483/483/483 482/482/482
f 411/411/411 412/412/412 483/483/483
f 412/412/412 484/484/484 483/483/483
f 412/412/412 413/413/413 484/484/484
f 413/413/413 485/485/485 484/484/484
f 413/413/413 414/414/414 485/485/485
f 414/414/414 486/486/486 485/485/485
f 414/414/414 415/415/415 486/486/486
f 415/415/415 487/487/487 486/486/486
f 415/415/415 416/416/416 487/487/487
f 416/416/416 488/488/488 487/487/487
f 416/416/416 417/417/417 488/488/488
f 417/417/417 489/489/489 488/488/488
f 417/417/417 418/418/418 489/489/489
f 418/418/418 490/490/490 489/489/489
f 418/418/418 419/419/419 490/490/490
f 419/419/419 491/491/491 490/490/490
f 419/419/419 420/420/420 491/491/491
f 420/420/420 492/492/492 491/491/491
f 420/420/420 421/421/421 492/492/492
f 421/421/421 493/493/493 492/492/492
f 421/421/421 422/422/422 493/493/493
f 422/422/422 494/494/494 493/493/493
f 422/422/422 423/423/423 494/494/494
f 423/423/423 495/495/495 494/494/494
f 423/423/423 424/424/424 495/495/495
f 424/424/424 496/496/496 495/495/495
f 424/424/424 425/425/425 496/496/496
f 425/425/425 497/497/497 496/496/496
f 425/425/425 426/426/426 497/497/497
f 426/426/426 498/498/498 497/497/497
f 426/426/426 427/427/427 498/498/498
f 427/427/427 499/499/499 498/498/498
f 427/427/427 428/428/428 499/499/499
f 428/428/428 500/500/500 499/499/499
f 428/428/428 429/429/429 500/500/500
f 429/429/429 501/501/501 500/500/500
f 429/429/429 430/430/430 501/501/501
f 430/430/430 502/502/502 501/501/501
f 430/430/430 431/431/431 502/502/502
f 431/431/431 503/503/503 502/502/502
f 431/431/431 432/432/432 503/503/503
f 432/432/432 504/504/504 503/503/503
f 432/432/432 433/433/433 504/504/504
f 433/433/433 505/505/505 504/504/504
f 433/433/433 362/362/362 505/505/505
f 362/362/362 434/434/434 505/505/505
f 434/434/434 435/435/435 506/506/506
f 435/435/435 507/507/507 506/506/506
f 435/435/435 436/436/436 507/507/507
f 436/436/436 508/508/508 507/507/507
f 436/436/436 437/437/437 508/508/508
f 437/437/437 509/509/509 508/508/508
f 437/437/437 438/438/438 509/509/509
f 438/438/438 510/510/510 509/509/509
f 438/438/438 439/439/439 510/510/510
f 439/439/439 511/511/511 510/510/510
f 439/439/439 440/440/440 511/511/511
f 440/440/440 512/512/512 511/511/511
f 440/440/440 441/441/441 512/512/512
f 441/441/441 513/513/513 512/512/512
f 441/441/441 442/442/442 513/513/513
f 442/442/442 514/514/514 513/513/513
f 442/442/442 443/443/443 514/514/514
f 443/443/443 515/515/515 514/514/514
f 443/443/443 444/444/444 515/515/515
f 444/444/444 516/516/516 515/515/515
f 444/444/444 445/445/445 516/516/516
f 445/445/445 517/517/517 516/516/516
f 445/445/445 446/446/446 517/517/517
f 446/446/446 518/518/518 517/517/517
f 446/446/446 447/447/447 518/518/518
f 447/447/447 519/519/519 518/518/518
f 447/447/447 448/448/448 519/519/519
f 448/448/448 520/520/520 519/519/519
f 448/448/448 449/449/449 520/520/520
f 449/449/449 521/521/521 520/520/520
f 449/449/449 450/450/450 521/521/521
f 450/450/450 522/522/522 521/521/521
f 450/450/450 451/451/451 522/522/522
f 451/451/451 523/523/523 522/522/522
f 451/451/451 452/452/452 523/523/523
f 452/452/452 524/524/524 523/523/523
f 452/452/452 453/453/453 524/524/524
f 453/453/453 525/525/525 524/524/524
f 453/453/453 454/454/454 525/525/525
f 454/454/454 526/526/526 525/525/525
f 454/454/454 455/455/455 526/526/526
f 455/455/455 527/527/527 526/526/526
f 455/455/455 456/456/456 527/527/527
f 456/456/456 528/528/528 527/527/527
f 456/456/456 457/457/457 528/528/528
f 457/457/457 529/529/529 528/528/528
f 457/457/457 458/458/458 529/529/529
f 458/458/458 530/530/530 529/529/529
f 458/458/458 459/459/459 530/530/530
f 459/459/459 531/531/531 530/530/530
f 459/459/459 460/460/460 531/531/531
f 460/460/460 532/532/532 531/531/531
f 460/460/460 461/461/461 532/532/532
f 461/461/461 533/533/533 532/532/532
f 461/461/461 462/462/462 533/533/533
f 462/462/462 534/534/534 533/533/533
f 462/462/462 463/463/463 534/534/534
f 463/463/463 535/535/535 534/534/534
f 463/463/463 464/464/464 535/535/535
f 464/464/464 536/536/536 535/535/535
f 464/464/464 465/465/465 536/536/536
f 465/465/465 537/537/537 536/536/536
f 465/465/465 466/466/466 537/537/537
f 466/466/466 538/538/538 537/537/537
f 466/466/466 467/467/467 538/538/538
f 467/467/467 539/539/539 538/538/538
f 467/467/467 468/468/468 539/539/539
f 468/468/468 540/540/540 539/539/539
f 468/468/468 469/469/469 540/540/540
f 469/469/469 541/541/541 540/540/540
f 469/469/469 470/470/470 541/541/541
f 470/470/470 542/542/542 541/541/541
f 470/470/470 471/471/471 542/542/542
f 471/471/471 543/543/543 542/542/542
f 471/471/471 472/472/472 543/543/543
f 472/472/472 544/544/544 543/543/543
f 472/472/472 473/473/473 544/544/544
f 473/473/473 545/545/545 544/544/544
f 473/473/473 474/474/474 545/545/545
f 474/474/474 546/546/546 545/545/545
f 474/474/474 475/475/475 546/546/546
f 475/475/475 547/547/547 546/546/546
f 475/475/475 476/476/476 547/547/547
f 476/476/476 548/548/548 547/547/547
f 476/476/476 477/477/477 548/548/548
f 477/477/477 549/549/549 548/548/548
f 477/477/477 478/478/478 549/549/549
f 478/478/478 550/550/550 549/549/549
f 478/478/478 479/479/479 550/550/550
f 479/479/479 551/551/551 550/550/550
f 479/479/479 480/480/480 551/551/551
f 480/480/480 552/552/552 551/551/551
f 480/480/480 481/481/481 552/552/552
f 481/481/481 553/553/553 552/552/552
f 481/481/481 482/482/482 553/553/553
f 482/482/482 554/554/554 553/553/553
f 482/482/482 483/483/483 554/554/554
f 483/483/483 555/555/555 554/554/554
f 483/483/483 484/484/484 555/555/555
f 484/484/484 556/556/556 555/555/555
f 484/484/484 485/485/485 556/556/556
f 485/485/485 557/557/557 556/556/556
f 485/485/485 486/486/486 557/557/557
f 486/486/486 558/558/558 557/557/557
f 486/486/486 487/487/487 558/558/558
f 487/487/487 559/559/559 558/558/558
f 487/487/487 488/488/488 559/559/559
f 488/488/488 560/560/560 559/559/559
f 488/488/488 489/489/489 560/560/560
f 489/489/489 561/561/561 560/560/560
f 489/489/489 490/490/490 561/561/561
f 490/490/490 562/562/562 561/561/561
f 490/490/490 491/491/491 562/562/562
f 491/491/491 563/563/563 562/562/562
f 491/491/491 492/492/492 563/563/563
f 492/492/492 564/564/564 563/563/563
f 492/492/492 493/493/493 564/564/564
f 493/493/493 565/565/565 564/564/564
f 493/493/493 494/494/494 565/565/565
f 494/494/494 566/566/566 565/565/565
f 494/494/494 495/495/495 566/566/566
f 495/495/495 567/567/567 566/566/566
f 495/495/495 496/496/496 567/567/567
f 496/496/496 568/568/568 567/567/567
f 496/496/496 497/497/497 568/568/568
f 497/497/497 569/569/569 568/568/568
f 497/497/497 498/498/498 569/569/569
f 498/498/498 570/570/570 569/569/569
f 498/498/498 499/499/499 570/570/570
f 499/499/499 571/571/571 570/570/570
f 499/499/499 500/500/500 571/571/571
f 500/500/500 572/572/572 571/571/571
f 500/500/500 501/501/501 572/572/572
f 501/501/501 573/573/573 572/572/572
f 501/501/501 502/502/502 573/573/573
f 502/502/502 574/574/574 573/573/573
f 502/502/502 503/503/503 574/574/574
f 503/503/503 575/575/575 574/574/574
f 503/503/503 504/504/504 575/575/575
f 504/504/504 576/576/576 575/575/575
f 504/504/504 505/505/505 576/576/576
f 505/505/505 577/577/577 576/576/576
f 505/505/505 434/434/434 577/577/577
f 434/434/434 506/506/506 577/577/577
f 506/506/506 507/507/507 578/578/578
f 507/507/507 579/579/579 578/578/578
f 507/507/507 508/508/508 579/579/579
f 508/508/508 580/580/580 579/579/579
f 508/508/508 509/509/509 580/580/580
f 509/509/509 581/581/581 580/580/580
f 509/509/509 510/510/510 581/581/581
f 510/510/510 582/582/582 581/581/581
f 510/510/510 511/511/511 582/582/582
f 511/511/511 583/583/583 582/582/582
f 511/511/511 512/512/512 583/583/583
f 512/512/512 584/584/584 583/583/583
f 512/512/512 513/513/513 584/584/584
f 513/513/513 585/585/585 584/584/584
f 513/513/513 514/514/514 585/585/585
f 514/514/514 586/586/586 585/585/585
f 514/514/514 515/515/515 586/586/586
f 515/515/515 587/587/587 586/586/586
f 515/515/515 516/516/516 587/587/587
f 516/516/516 588/588/588 587/587/587
f 516/516/516 517/517/517 588/588/588
f 517/517/517 589/589/589 588/588/588
f 517/517/517 518/518/518 589/589/589
f 518/518/518 590/590/590 589/589/589
f 518/518/518 519/519/519 590/590/590
f 519/519/519 591/591/591 590/590/590
f 519/519/519 520/520/520 591/591/591
f 520/520/520 592/592/592 591/591/591
f 520/520/520 521/521/521 592/592/592
f 521/521/521 593/593/593 592/592/592
f 521/521/521 522/522/522 593/593/593
f 522/522/522 594/594/594 593/593/593
f 522/522/522 523/523/523 594/594/594
f 523/523/523 595/595/595 594/594/594
f 523/523/523 524/524/524 595/595/595
f 524/524/524 596/596/596 595/595/595
f 524/524/524 525/525/525 596/596/596
f 525/525/525 597/597/597 596/596/596
f 525/525/525 526/526/526 597/597/597
f 526/526/526 598/598/598 597/597/597
f 526/526/526 527/527/527 598/598/598
f 527/527/527 599/599/599 598/598/598
f 527/527/527 528/528/528 599/599/599
f 528/528/528 600/600/600 599/599/599
f 528/528/528 529/529/529 600/600/600
f 529/529/529 601/601/601 600/600/600
f 529/529/529 530/530/530 601/601/601
f 530/530/530 602/602/602 601/601/601
f 530/530/530 531/531/531 602/602/602
f 531/531/531 603/603/603 602/602/602
f 531/531/531 532/532/532 603/603/603
f 532/532/532 604/604/604 603/603/603
f 532/532/532 533/533/533 604/604/604
f 533/533/533 605/605/605 604/604/604
f 533/533/533 534/534/534 605/605/605
f 534/534/534 606/606/606 605/605/605
f 534/534/534 535/535/535 606/606/606
f 535/535/535 607/607/607 606/606/606
f 535/535/535 536/536/536 607/607/607
f 536/536/536 608/608/608 607/607/607
f 536/536/536 537/537/537 608/608/608
f 537/537/537 609/609/609 608/608/608
f 537/537/537 538/538/538 609/609/609
f 538/538/538 610/610/610 609/609/609
f 538/538/538 539/539/539 610/610/610
f 539/539/539 611/611/611 610/610/610
f 539/539/539 540/540/540 611/611/611
f 540/540/540 612/612/612 611/611/611
f 540/540/540 541/541/541 612/612/612
f 541/541/541 613/613/613 612/612/612
f 541/541/541 542/542/542 613/613/613
f 542/542/542 614/614/614 613/613/613
f 542/542/542 543/543/543 614/614/614
f 543/543/543 615/615/615 614/614/614
f 543/543/543 544/544/544 615/615/615
f 544/544/544 616/616/616 615/615/615
f 544/544/544 545/545/545 616/616/616
f 545/545/545 617/617/617 616/616/616
f 545/545/545 546/546/546 617/617/617
f 546/546/546 618/618/618 617/617/617
f 546/546/546 547/547/547 618/618/618
f 547/547/547 619/619/619 618/618/618
f 547/547/547 548/548/548 619/619/619
f 548/548/548 620/620/620 619/619/619
f 548/548/548 549/549/549 620/620/620
f 549/549/549 621/621/621 620/620/620
f 549/549/549 550/550/550 621/621/621
f 550/550/550 622/622/622 621/621/621
f 550/550/550 551/551/551 622/622/622
f 551/551/551 623/623/623 622/622/622
f 551/551/551 552/552/552 623/623/623
f 552/552/552 624/624/624 623/623/623
f 552/552/552 553/553/553 624/624/624
f 553/553/553 625/625/625 624/624/624
f 553/553/553 554/554/554 625/625/625
f 554/554/554 626/626/626 625/625/625
f 554/554/554 555/555/555 626/626/626
f 555/555/555 627/627/627 626/626/626
f 555/555/555 556/556/556 627/627/627
f 556/556/556 628/628/628 627/627/627
f 556/556/556 557/557/557 628/628/628
f 557/557/557 629/629/629 628/628/628
f 557/557/557 558/558/558 629/629/629
f 558/558/558 630/630/630 629/629/629
f 558/558/558 559/559/559 630/630/630
f 559/559/559 631/631/631 630/630/630
f 559/559/559 560/560/560 631/631/631
f 560/560/560 632/632/632 631/631/631
f 560/560/560 561/561/561 632/632/632
f 561/561/561 633/633/633 632/632/632
f 561/561/561 562/562/562 633/633/633
f 562/562/562 634/634/634 633/633/633
f 562/562/562 563/563/563 634/634/634
f 563/563/563 635/635/635 634/634/634
f 563/563/563 564/564/564 635/635/635
f 564/564/564 636/636/636 635/635/635
f 564/564/564 565/565/565 636/636/636
f 565/565/565 637/637/637 636/636/636
f 565/565/565 566/566/566 637/637/637
f 566/566/566 638/638/638 637/637/637
f 566/566/566 567/567/567 638/638/638
f 567/567/567 639/639/639 638/638/638
f 567/567/567 568/568/568 639/639/639
f 568/568/568 640/640/640 639/639/639
f 568/568/568 569/569/569 640/640/640
f 569/569/569 641/641/641 640/640/640
f 569/569/569 570/570/570 641/641/641
f 570/570/570 642/642/642 641/641/641
f 570/570/570 571/571/571 642/642/642
f 571/571/571 643/643/643 642/642/642
f 571/571/571 572/572/572 643/643/643
f 572/572/572 644/644/644 643/643/643
f 572/572/572 573/573/573 644/644/644
f 573/573/573 645/645/645 644/644/644
f 573/573/573 574/574/574 645/645/645
f 574/574/574 646/646/646 645/645/645
f 574/574/574 575/575/575 646/646/646
f 575/575/575 647/647/647 646/646/646
f 575/575/575 576/576/576 647/647/647
f 576/576/576 648/648/648 647/647/647
f 576/576/576 577/577/577 648/648/648
f 577/577/577 649/649/649 648/648/648
f 577/577/577 506/506/506 649/649/649
f 506/506/506 578/578/578 649/649/649
