# Blender 5.2.0 LTS
# www.blender.org
o SM_VRK_Wall_Slab_A
v -3.454400 0.720000 0.132600
v -2.748800 0.720000 0.110200
v -2.043200 0.720000 0.087800
v -1.337600 0.720000 0.065400
v -0.543800 0.720000 -0.061000
v 0.250000 0.720000 -0.079000
v 1.043800 0.720000 -0.097000
v 1.837600 0.720000 -0.115000
v 2.587300 0.720000 0.338158
v 3.348800 0.720000 0.432895
v 4.054400 0.720000 0.533947
v -3.340000 1.550000 0.107600
v -2.660000 1.550000 0.280064
v -1.980000 1.550000 0.315105
v -1.300000 1.550000 0.040400
v -0.535000 1.550000 -0.086000
v 0.230000 1.550000 -0.104000
v 0.995000 1.550000 -0.122000
v 1.760000 1.550000 -0.140000
v 2.482500 1.550000 0.313158
v 3.220000 1.550000 0.407895
v 3.900000 1.550000 0.508947
v -3.186000 2.420000 0.082600
v -2.542000 2.420000 0.119742
v -1.898000 2.420000 0.114893
v -1.254000 2.420000 0.015400
v -0.529500 2.420000 -0.111000
v 0.195000 2.420000 -0.213549
v 0.919500 2.420000 -0.203398
v 1.644000 2.420000 -0.165000
v 2.328250 2.420000 0.288158
v 2.932000 2.420000 0.446406
v 3.576000 2.420000 0.483947
v -3.097600 3.280000 0.057600
v -2.495200 3.360000 0.035200
v -1.812800 3.360000 0.012800
v -1.210400 3.280000 -0.009600
v -0.532700 3.280000 -0.136000
v 0.145000 3.280000 -0.178157
v 0.822700 3.280000 -0.188114
v 1.500400 3.280000 -0.190000
v 2.140450 3.280000 0.263158
v 2.705200 3.280000 0.604001
v 3.307600 3.280000 0.458947
v -2.863200 4.120000 0.032600
v -2.306400 4.120000 0.010200
v -1.669600 4.120000 -0.012200
v -1.112800 4.120000 -0.034600
v -0.486400 4.120000 -0.161000
v 0.140000 4.120000 -0.179000
v 0.766400 4.120000 -0.197000
v 1.984400 4.120000 0.238158
v 2.506400 4.120000 0.332895
v 3.063200 4.120000 0.433947
v -3.454400 0.720000 -1.345000
v -2.748800 0.720000 -1.295000
v -2.043200 0.720000 -1.295000
v -1.337600 0.720000 -1.295000
v -0.543800 0.720000 -1.295000
v 0.250000 0.720000 -1.295000
v 1.043800 0.720000 -1.295000
v 1.837600 0.720000 -1.295000
v 2.587300 0.720000 -1.295000
v 3.348800 0.720000 -1.257445
v 4.054400 0.720000 -1.211222
v -3.340000 1.550000 -1.300000
v -2.660000 1.550000 -1.250000
v -1.980000 1.550000 -1.250000
v -1.300000 1.550000 -1.250000
v -0.535000 1.550000 -1.250000
v 0.230000 1.550000 -1.250000
v 0.995000 1.550000 -1.250000
v 1.760000 1.550000 -1.250000
v 2.482500 1.550000 -1.250000
v 3.220000 1.550000 -1.212444
v 3.900000 1.550000 -1.166222
v -3.186000 2.420000 -1.255000
v -2.542000 2.420000 -1.205000
v -1.898000 2.420000 -1.205000
v -1.254000 2.420000 -1.205000
v -0.529500 2.420000 -1.205000
v 0.195000 2.420000 -1.205000
v 0.919500 2.420000 -1.205000
v 1.644000 2.420000 -1.205000
v 2.328250 2.420000 -1.205000
v 2.932000 2.420000 -1.167444
v 3.576000 2.420000 -1.121222
v -3.097600 3.280000 -1.210000
v -2.495200 3.360000 -1.160000
v -1.812800 3.360000 -1.160000
v -1.210400 3.280000 -1.160000
v -0.532700 3.280000 -1.160000
v 0.145000 3.280000 -1.160000
v 0.822700 3.280000 -1.160000
v 1.500400 3.280000 -1.160000
v 2.140450 3.280000 -1.160000
v 2.705200 3.280000 -1.122444
v 3.307600 3.280000 -1.076222
v -2.863200 4.120000 -1.165000
v -2.306400 4.120000 -1.115000
v -1.669600 4.120000 -1.115000
v -1.112800 4.120000 -1.115000
v -0.486400 4.120000 -1.115000
v 0.140000 4.120000 -1.115000
v 0.766400 4.120000 -1.115000
v 1.392800 4.120000 -1.115000
v 1.984400 4.120000 -1.115000
v 2.506400 4.120000 -1.077444
v 3.063200 4.120000 -1.031222
v -4.270958 0.054252 0.123087
v -4.225070 0.002756 0.122921
v -4.212765 0.057884 0.176235
v -3.579200 0.035164 0.102265
v -3.569179 0.090154 0.155593
v -2.878400 0.049997 0.079828
v -2.867771 0.104947 0.133150
v -2.177600 0.035923 0.057365
v -2.166815 0.090817 0.110794
v -1.476800 0.001080 0.034868
v -1.466176 0.055950 0.088492
v -0.688400 -0.034388 -0.091645
v -0.677883 0.020480 -0.037818
v 0.100000 -0.049974 -0.109778
v 0.110690 0.004900 -0.055782
v 0.888400 -0.036666 -0.127972
v 0.899671 0.018217 -0.073813
v 1.676800 -0.002159 -0.146242
v 1.689021 0.052725 -0.091900
v 2.421400 0.033597 0.306803
v 2.434635 0.088357 0.361163
v 3.078400 0.049927 0.401663
v 3.100507 0.104712 0.455851
v 3.779200 0.037391 0.502786
v 3.801255 0.092096 0.556944
v 4.425065 0.005914 0.595940
v 4.493396 0.056580 0.602986
v 4.436176 0.061209 0.649759
v -4.102340 0.720000 0.153170
v -4.160000 0.720000 0.099971
v 4.660000 0.720000 0.579842
v 4.601779 0.720000 0.625285
v -3.962115 1.550000 0.128093
v -4.020000 1.550000 0.074971
v 4.480000 1.550000 0.554826
v 4.421556 1.550000 0.599817
v -3.771736 2.420000 0.102973
v -3.830000 2.420000 0.049971
v 4.220000 2.420000 0.529799
v 4.160879 2.420000 0.575723
v -3.561218 3.280000 0.077479
v -3.620000 3.280000 0.024969
v 3.910000 3.280000 0.504757
v 3.850309 3.280000 0.549987
v -3.280541 4.120000 0.052207
v -3.340000 4.120000 -0.000032
v 1.436862 4.120000 -0.181249
v 1.337242 4.120000 -0.213403
v 1.399785 4.065469 -0.213377
v 3.620000 4.120000 0.479698
v 3.559612 4.120000 0.524040
v -2.992224 4.423713 0.034799
v -2.980000 4.500000 -0.025033
v -2.536691 4.723701 0.011343
v -2.479200 4.830000 -0.047433
v -2.014702 5.358682 -0.068209
v -1.992761 5.343957 -0.013705
v -1.928801 5.376231 -0.073068
v -1.488117 5.103034 -0.035831
v -1.477600 5.160000 -0.093289
v -0.985483 4.953175 -0.058004
v -0.976800 5.010000 -0.115813
v -0.418324 4.903336 -0.184314
v -0.413400 4.960000 -0.242385
v 0.149292 4.863365 -0.202230
v 0.150000 4.920000 -0.260605
v 0.717246 4.843401 -0.220186
v 0.713400 4.900000 -0.278951
v 1.326558 4.864479 -0.203578
v 1.276800 4.910000 -0.297451
v 1.229680 4.852566 -0.236443
v 1.758764 5.127387 0.112541
v 1.819752 5.086311 0.214704
v 1.861291 5.133262 0.168201
v 2.295637 4.933469 0.309785
v 2.278400 5.000000 0.252385
v 2.818509 4.619721 0.412408
v 2.779200 4.700000 0.353489
v 3.280000 4.360000 0.454619
v 3.281968 4.304712 0.505568
v -4.225070 0.002756 -1.334967
v -4.270958 0.054252 -1.331520
v -4.212774 0.057831 -1.386568
v -3.569190 0.090092 -1.386391
v -3.579200 0.035164 -1.334966
v -2.867783 0.104887 -1.336313
v -2.878400 0.049997 -1.284967
v -2.166826 0.090763 -1.336393
v -2.177600 0.035923 -1.284972
v -1.466183 0.055911 -1.336568
v -1.476800 0.001080 -1.284974
v -0.677887 0.020460 -1.336728
v -0.688400 -0.034388 -1.284974
v 0.110690 0.004897 -1.336793
v 0.100000 -0.049974 -1.284972
v 0.899675 0.018232 -1.336735
v 0.888400 -0.036666 -1.284968
v 1.689029 0.052762 -1.336578
v 1.676800 -0.002159 -1.284961
v 2.434670 0.088499 -1.336401
v 2.421400 0.033597 -1.284952
v 3.100613 0.104973 -1.298748
v 3.078400 0.049927 -1.247386
v 3.801355 0.092344 -1.252599
v 3.779200 0.037391 -1.201157
v 4.493396 0.056580 -1.151541
v 4.425065 0.005914 -1.158556
v 4.435864 0.061364 -1.210355
v -4.160000 0.720000 -1.289912
v -4.102336 0.720000 -1.345000
v 4.601211 0.720000 -1.169487
v 4.660000 0.720000 -1.109890
v -4.020000 1.550000 -1.244913
v -3.962111 1.550000 -1.300000
v 4.420951 1.550000 -1.124706
v 4.480000 1.550000 -1.064888
v -3.830000 2.420000 -1.199912
v -3.771731 2.420000 -1.255000
v 4.160415 2.420000 -1.079277
v 4.220000 2.420000 -1.019883
v -3.620000 3.280000 -1.154911
v -3.561201 3.280000 -1.210000
v 3.849781 3.280000 -1.034621
v 3.910000 3.280000 -0.974873
v -3.340000 4.120000 -1.109908
v -3.280520 4.120000 -1.165000
v 3.558990 4.120000 -0.990065
v 3.620000 4.120000 -0.929860
v -2.980000 4.500000 -1.064909
v -2.992855 4.426668 -1.140442
v -2.479200 4.830000 -1.064910
v -2.537173 4.722810 -1.126794
v -2.014702 5.358682 -1.018533
v -1.928801 5.376231 -1.015000
v -1.992962 5.343172 -1.071998
v -1.477600 5.160000 -1.015000
v -1.488286 5.102117 -1.072505
v -0.976800 5.010000 -1.015000
v -0.985651 4.952076 -1.072929
v -0.413400 4.960000 -1.015000
v -0.418445 4.901947 -1.073110
v 0.150000 4.920000 -1.015000
v 0.149270 4.861580 -1.073286
v 0.713400 4.900000 -1.015000
v 0.717404 4.841072 -1.073400
v 1.276800 4.910000 -1.015000
v 1.285538 4.850493 -1.073390
v 1.758764 5.127387 -1.015000
v 1.861291 5.133262 -1.010656
v 1.819119 5.090024 -1.072620
v 2.278400 5.000000 -0.977291
v 2.294751 4.936891 -1.035672
v 2.779200 4.700000 -0.931070
v 2.816340 4.624151 -0.992107
v 3.306068 4.337072 -0.981157
v 3.280000 4.360000 -0.884850
vn -0.1074 -0.0734 0.9915
vn -0.0089 -0.2319 0.9727
vn 0.2079 -0.1308 0.9694
vn 0.1600 0.0252 0.9868
vn 0.0231 0.0303 0.9993
vn 0.0231 0.0311 0.9993
vn 0.0227 0.0322 0.9992
vn 0.0235 0.0315 0.9992
vn -0.5240 -0.0319 0.8511
vn -0.1254 0.0122 0.9920
vn -0.1443 0.0052 0.9895
vn -0.2452 0.0712 0.9669
vn -0.0565 0.1883 0.9805
vn -0.0223 0.2053 0.9784
vn 0.2705 0.1040 0.9571
vn 0.1673 0.0234 0.9856
vn 0.0804 0.0782 0.9937
vn 0.0052 0.1094 0.9940
vn -0.0137 0.0595 0.9981
vn -0.5406 -0.0599 0.8391
vn -0.1851 -0.0547 0.9812
vn -0.1040 -0.0443 0.9936
vn -0.0158 0.0619 0.9980
vn 0.0204 0.0973 0.9950
vn 0.1011 0.0629 0.9929
vn 0.1774 0.0244 0.9838
vn 0.1027 -0.0028 0.9947
vn -0.0001 -0.0295 0.9996
vn -0.0260 0.0020 0.9997
vn -0.5628 -0.0845 0.8223
vn -0.2463 -0.2372 0.9397
vn -0.5147 -0.0876 0.8529
vn 0.0858 -0.0520 0.9950
vn 0.0371 0.0214 0.9991
vn 0.0339 0.0255 0.9991
vn 0.0405 0.0252 0.9989
vn 0.0402 0.0251 0.9989
vn 0.1903 0.0129 0.9816
vn 0.0461 0.0142 0.9988
vn 0.0214 0.0066 0.9997
vn -0.3707 0.0847 0.9249
vn 0.0373 0.1830 0.9824
vn 0.0719 0.0452 -0.9964
vn -0.0000 0.0541 -0.9985
vn 0.0500 0.0611 -0.9969
vn 0.0664 0.0653 -0.9957
vn 0.0753 0.0398 -0.9964
vn -0.0000 0.0517 -0.9987
vn 0.0558 0.0657 -0.9963
vn 0.0695 0.0759 -0.9947
vn 0.0771 0.0440 -0.9961
vn -0.0000 0.0478 -0.9989
vn 0.0032 0.0497 -0.9988
vn -0.0000 0.0523 -0.9986
vn 0.0640 0.0675 -0.9957
vn 0.0738 0.0733 -0.9946
vn 0.0836 0.0339 -0.9959
vn -0.0000 0.0591 -0.9983
vn 0.0038 0.0556 -0.9984
vn -0.0000 0.0535 -0.9986
vn 0.0688 0.0679 -0.9953
vn 0.0793 0.0742 -0.9941
vn -0.5646 -0.5052 0.6527
vn 0.4358 -0.6712 0.5996
vn -0.2898 -0.3319 0.8977
vn -0.1721 0.9313 0.3209
vn -0.2795 0.7974 0.5348
vn -0.3241 0.7949 0.5130
vn -0.5873 -0.4797 -0.6519
vn 0.5273 -0.6326 -0.5673
vn -0.1749 0.9243 -0.3393
vn -0.0236 0.8273 -0.5612
vn -0.6722 0.1374 0.7276
vn 0.0579 -0.7005 0.7113
vn 0.0376 -0.6994 0.7137
vn 0.0089 -0.6978 0.7162
vn -0.0118 -0.6970 0.7170
vn 0.0812 -0.7052 0.7043
vn 0.0025 -0.7011 0.7131
vn 0.0282 -0.7045 0.7092
vn 0.0472 -0.7073 0.7053
vn -0.3949 -0.5990 0.6966
vn -0.0864 -0.6870 0.7215
vn -0.1173 -0.6742 0.7292
vn -0.1383 -0.6722 0.7273
vn 0.6160 -0.1268 0.7775
vn -0.6709 0.1352 0.7291
vn 0.6052 0.1551 0.7808
vn -0.6651 0.1664 0.7280
vn 0.5992 0.2012 0.7749
vn -0.6583 0.1824 0.7303
vn 0.5915 0.2362 0.7710
vn -0.6443 0.2368 0.7272
vn 0.5826 0.2251 0.7810
vn -0.5525 0.5621 0.6155
vn -0.3618 0.6011 0.7126
vn -0.6680 0.6036 0.4353
vn 0.3341 0.6341 0.6974
vn 0.2323 0.6726 0.7026
vn 0.2161 0.6847 0.6960
vn 0.0727 0.7131 0.6973
vn 0.0476 0.7188 0.6936
vn -0.3132 -0.0170 0.9495
vn 0.0095 0.7225 0.6913
vn -0.6888 0.4339 0.5808
vn 0.0644 0.6664 0.7428
vn 0.2541 0.6589 0.7080
vn 0.4082 0.6585 0.6323
vn 0.3047 0.6540 0.6924
vn 0.0345 -0.6869 -0.7259
vn -0.6829 0.1585 -0.7131
vn 0.0661 -0.6884 -0.7223
vn -0.0138 -0.6821 -0.7312
vn -0.0339 -0.6807 -0.7318
vn -0.0308 -0.6823 -0.7304
vn -0.0136 -0.6850 -0.7284
vn 0.0116 -0.6875 -0.7261
vn 0.0302 -0.6886 -0.7246
vn 0.0331 -0.6880 -0.7249
vn 0.0581 -0.6918 -0.7198
vn 0.0353 -0.6899 -0.7230
vn 0.7043 -0.1333 -0.6973
vn 0.0148 -0.6853 -0.7281
vn -0.6818 0.1539 -0.7151
vn 0.6990 0.1890 -0.6897
vn -0.6763 0.1847 -0.7131
vn 0.6879 0.2414 -0.6845
vn -0.6713 0.2015 -0.7133
vn 0.6770 0.2798 -0.6808
vn -0.6586 0.2577 -0.7070
vn 0.6771 0.2706 -0.6843
vn -0.5811 0.6034 -0.5461
vn -0.4154 0.6485 -0.6378
vn -0.6527 0.6123 -0.4463
vn 0.3051 0.6385 -0.7066
vn 0.2013 0.6743 -0.7105
vn 0.0621 0.7022 -0.7093
vn 0.0500 0.7047 -0.7077
vn 0.0252 0.7052 -0.7085
vn -0.0120 0.7014 -0.7126
vn -0.2889 0.6432 -0.7091
vn 0.2743 0.6907 -0.6692
vn 0.4553 0.6746 -0.5810
vn 0.5782 0.7788 -0.2432
vn 0.5235 0.8004 -0.2921
vn -0.7466 -0.6653 -0.0000
vn -0.2002 0.9798 -0.0000
vn -0.0572 0.9984 -0.0000
vn 0.5956 -0.8033 -0.0000
vn -0.9864 0.1644 -0.0000
vn 0.0311 0.0302 0.9991
vn 0.0501 -0.9987 -0.0000
vn 0.0315 0.0310 0.9990
vn 0.0212 -0.9998 -0.0000
vn 0.0321 0.0306 0.9990
vn -0.0201 -0.9998 -0.0000
vn 0.0325 0.0293 0.9990
vn -0.0497 -0.9988 -0.0000
vn 0.1578 0.0031 0.9875
vn -0.0449 -0.9990 -0.0000
vn 0.0230 0.0283 0.9993
vn -0.0198 -0.9998 -0.0000
vn 0.0225 0.0282 0.9993
vn 0.0169 -0.9999 -0.0000
vn 0.0221 0.0291 0.9993
vn 0.0437 -0.9990 -0.0000
vn -0.5151 0.1494 0.8440
vn 0.0480 -0.9988 -0.0000
vn -0.1320 0.0789 0.9881
vn 0.0248 -0.9997 -0.0000
vn -0.1408 0.0932 0.9856
vn -0.0179 -0.9998 -0.0000
vn -0.1512 0.0855 0.9848
vn -0.0487 -0.9988 -0.0000
vn 0.9699 -0.2436 -0.0000
vn 0.0323 0.0252 0.9992
vn -0.9861 0.1663 -0.0000
vn -0.1680 -0.0039 0.9858
vn 0.9773 0.2119 -0.0000
vn 0.0338 0.0221 0.9992
vn -0.9770 0.2134 -0.0000
vn -0.1628 -0.0269 0.9863
vn 0.9581 0.2863 -0.0000
vn 0.0383 0.0227 0.9990
vn -0.9715 0.2372 -0.0000
vn -0.1600 -0.0247 0.9868
vn 0.9407 0.3391 -0.0000
vn 0.0448 0.0162 0.9989
vn -0.9487 0.3162 -0.0000
vn -0.1717 -0.0248 0.9848
vn 0.9453 0.3263 -0.0000
vn 0.0452 0.0120 0.9989
vn -0.7260 0.6877 -0.0000
vn -0.5912 -0.0689 0.8035
vn 0.0152 0.0216 0.9997
vn -0.6150 -0.0778 0.7847
vn 0.0298 0.0349 0.9989
vn -0.2219 -0.1127 0.9685
vn 0.5767 0.8170 -0.0000
vn -0.5502 0.8350 -0.0000
vn 0.0363 0.0120 0.9993
vn -0.7512 0.6600 -0.0000
vn 0.0415 0.0122 0.9991
vn 0.4322 0.9018 -0.0000
vn 0.0446 0.0183 0.9988
vn 0.2869 0.9580 -0.0000
vn 0.2073 0.0032 0.9783
vn 0.0884 0.9961 -0.0000
vn 0.0310 0.0289 0.9991
vn 0.0708 0.9975 -0.0000
vn 0.0306 0.0324 0.9990
vn 0.0355 0.9994 -0.0000
vn -0.0177 0.9998 -0.0000
vn -0.4112 0.9116 -0.0000
vn -0.1889 -0.0142 0.9819
vn 0.3043 0.9526 -0.0000
vn -0.1949 -0.0343 0.9802
vn 0.5139 0.8579 -0.0000
vn 0.5617 0.8273 -0.0000
vn -0.0015 0.0643 -0.9979
vn 0.0703 0.0530 -0.9961
vn 0.0006 0.0662 -0.9978
vn 0.0015 0.0637 -0.9980
vn 0.0013 0.0607 -0.9982
vn 0.0005 0.0588 -0.9983
vn -0.0005 0.0589 -0.9983
vn -0.0012 0.0610 -0.9981
vn -0.0014 0.0641 -0.9979
vn 0.0520 0.0495 -0.9974
vn 0.0658 0.0398 -0.9970
vn 0.0719 0.0403 -0.9966
vn 0.0775 0.0694 -0.9946
vn 0.0751 0.0769 -0.9942
vn 0.0737 0.0767 -0.9943
vn 0.0792 0.0782 -0.9938
vn -0.0101 0.0756 -0.9971
vn 0.0894 0.1277 -0.9878
vn 0.0870 0.0138 -0.9961
vn 0.0074 0.0371 -0.9993
vn 0.0060 0.0455 -0.9989
vn 0.0020 0.0517 -0.9987
vn 0.0017 0.0547 -0.9985
vn 0.0009 0.0569 -0.9984
vn -0.0004 0.0572 -0.9984
vn -0.0095 0.0478 -0.9988
vn 0.0842 0.0646 -0.9944
vn 0.1111 0.0991 -0.9889
s 0
f 1//1 2//1 13//1 12//1
f 2//2 3//2 14//2 13//2
f 3//3 4//3 15//3 14//3
f 4//4 5//4 16//4 15//4
f 5//5 6//5 17//5 16//5
f 6//6 7//6 18//6 17//6
f 7//7 8//7 19//7
f 7//8 19//8 18//8
f 8//9 9//9 20//9 19//9
f 9//10 10//10 21//10 20//10
f 10//11 11//11 22//11 21//11
f 12//12 13//12 23//12
f 13//13 24//13 23//13
f 13//14 14//14 25//14 24//14
f 14//15 15//15 26//15 25//15
f 15//16 16//16 27//16 26//16
f 16//17 17//17 28//17 27//17
f 17//18 18//18 29//18 28//18
f 18//19 19//19 30//19 29//19
f 19//20 20//20 31//20 30//20
f 20//21 21//21 32//21 31//21
f 21//22 22//22 33//22 32//22
f 23//23 24//23 35//23 34//23
f 24//24 25//24 36//24 35//24
f 25//25 26//25 37//25 36//25
f 26//26 27//26 38//26 37//26
f 27//27 28//27 39//27 38//27
f 28//28 29//28 40//28 39//28
f 29//29 30//29 41//29 40//29
f 30//30 31//30 42//30 41//30
f 31//31 32//31 43//31
f 31//32 43//32 42//32
f 32//33 33//33 44//33 43//33
f 34//34 35//34 46//34 45//34
f 35//35 36//35 47//35 46//35
f 36//36 37//36 47//36
f 37//37 48//37 47//37
f 37//38 38//38 49//38 48//38
f 38//39 39//39 50//39 49//39
f 39//40 40//40 51//40 50//40
f 42//41 43//41 53//41 52//41
f 43//42 44//42 54//42 53//42
f 56//43 55//43 66//43 67//43
f 57//44 56//44 67//44 68//44
f 58//44 57//44 68//44 69//44
f 59//44 58//44 69//44 70//44
f 60//44 59//44 70//44 71//44
f 61//44 60//44 71//44 72//44
f 62//44 61//44 72//44 73//44
f 63//44 62//44 73//44 74//44
f 64//45 63//45 74//45 75//45
f 65//46 64//46 75//46 76//46
f 67//47 66//47 77//47 78//47
f 68//48 67//48 78//48 79//48
f 69//48 68//48 79//48 80//48
f 70//48 69//48 80//48 81//48
f 71//48 70//48 81//48 82//48
f 72//48 71//48 82//48 83//48
f 73//48 72//48 83//48 84//48
f 74//48 73//48 84//48 85//48
f 75//49 74//49 85//49 86//49
f 76//50 75//50 86//50 87//50
f 78//51 77//51 88//51 89//51
f 79//52 78//52 89//52 90//52
f 80//53 79//53 90//53 91//53
f 81//54 80//54 91//54 92//54
f 82//54 81//54 92//54 93//54
f 83//54 82//54 93//54 94//54
f 84//54 83//54 94//54 95//54
f 85//54 84//54 95//54 96//54
f 86//55 85//55 96//55 97//55
f 87//56 86//56 97//56 98//56
f 89//57 88//57 99//57 100//57
f 90//58 89//58 100//58 101//58
f 91//59 90//59 101//59 102//59
f 92//60 91//60 102//60 103//60
f 93//60 92//60 103//60 104//60
f 94//60 93//60 104//60 105//60
f 95//60 94//60 105//60 106//60
f 96//60 95//60 106//60 107//60
f 97//61 96//61 107//61 108//61
f 98//62 97//62 108//62 109//62
f 110//63 111//63 112//63
f 135//64 136//64 137//64
f 156//65 157//65 158//65
f 165//66 166//66 167//66
f 178//67 179//67 180//67
f 181//68 182//68 183//68
f 190//69 191//69 192//69
f 215//70 216//70 217//70
f 242//71 243//71 244//71
f 257//72 258//72 259//72
f 112//73 138//73 139//73 110//73
f 111//74 113//74 114//74 112//74
f 113//75 115//75 116//75 114//75
f 115//76 117//76 118//76 116//76
f 117//77 119//77 120//77 118//77
f 119//78 121//78 122//78 120//78
f 121//79 123//79 124//79 122//79
f 123//80 125//80 126//80 124//80
f 125//81 127//81 128//81 126//81
f 127//82 129//82 130//82 128//82
f 129//83 131//83 132//83 130//83
f 131//84 133//84 134//84 132//84
f 133//85 135//85 137//85 134//85
f 136//86 140//86 141//86 137//86
f 138//87 142//87 143//87 139//87
f 140//88 144//88 145//88 141//88
f 142//89 146//89 147//89 143//89
f 144//90 148//90 149//90 145//90
f 146//91 150//91 151//91 147//91
f 148//92 152//92 153//92 149//92
f 150//93 154//93 155//93 151//93
f 152//94 159//94 160//94 153//94
f 154//95 161//95 162//95 155//95
f 161//96 163//96 164//96 162//96
f 163//97 166//97 165//97 164//97
f 166//98 168//98 169//98 167//98
f 168//99 170//99 171//99 169//99
f 170//100 172//100 173//100 171//100
f 172//101 174//101 175//101 173//101
f 174//102 176//102 177//102 175//102
f 156//103 178//103 180//103 157//103
f 176//104 180//104 179//104 177//104
f 178//105 182//105 181//105 179//105
f 182//106 184//106 185//106 183//106
f 184//107 186//107 187//107 185//107
f 159//108 188//108 189//108 160//108
f 186//109 189//109 188//109 187//109
f 192//110 193//110 194//110 190//110
f 191//111 218//111 219//111 192//111
f 193//112 195//112 196//112 194//112
f 195//113 197//113 198//113 196//113
f 197//114 199//114 200//114 198//114
f 199//115 201//115 202//115 200//115
f 201//116 203//116 204//116 202//116
f 203//117 205//117 206//117 204//117
f 205//118 207//118 208//118 206//118
f 207//119 209//119 210//119 208//119
f 209//120 211//120 212//120 210//120
f 211//121 213//121 214//121 212//121
f 217//122 220//122 221//122 215//122
f 213//123 217//123 216//123 214//123
f 218//124 222//124 223//124 219//124
f 220//125 224//125 225//125 221//125
f 222//126 226//126 227//126 223//126
f 224//127 228//127 229//127 225//127
f 226//128 230//128 231//128 227//128
f 228//129 232//129 233//129 229//129
f 230//130 234//130 235//130 231//130
f 232//131 236//131 237//131 233//131
f 234//132 238//132 239//132 235//132
f 238//133 240//133 241//133 239//133
f 240//134 242//134 244//134 241//134
f 243//135 245//135 246//135 244//135
f 245//136 247//136 248//136 246//136
f 247//137 249//137 250//137 248//137
f 249//138 251//138 252//138 250//138
f 251//139 253//139 254//139 252//139
f 253//140 255//140 256//140 254//140
f 255//141 257//141 259//141 256//141
f 258//142 260//142 261//142 259//142
f 260//143 262//143 263//143 261//143
f 236//144 264//144 265//144 237//144
f 262//145 265//145 264//145 263//145
f 110//146 191//146 190//146 111//146
f 167//147 243//147 242//147 165//147
f 183//148 258//148 257//148 181//148
f 135//149 216//149 215//149 136//149
f 110//150 139//150 218//150 191//150
f 112//151 114//151 1//151 138//151
f 113//152 111//152 190//152 194//152
f 114//153 116//153 2//153 1//153
f 115//154 113//154 194//154 196//154
f 116//155 118//155 3//155 2//155
f 117//156 115//156 196//156 198//156
f 118//157 120//157 4//157 3//157
f 119//158 117//158 198//158 200//158
f 120//159 122//159 5//159 4//159
f 121//160 119//160 200//160 202//160
f 122//161 124//161 6//161 5//161
f 123//162 121//162 202//162 204//162
f 124//163 126//163 7//163 6//163
f 125//164 123//164 204//164 206//164
f 126//165 128//165 8//165 7//165
f 127//166 125//166 206//166 208//166
f 128//167 130//167 9//167 8//167
f 129//168 127//168 208//168 210//168
f 130//169 132//169 10//169 9//169
f 131//170 129//170 210//170 212//170
f 132//171 134//171 11//171 10//171
f 133//172 131//172 212//172 214//172
f 134//173 137//173 141//173 11//173
f 135//174 133//174 214//174 216//174
f 140//175 136//175 215//175 221//175
f 138//176 1//176 12//176 142//176
f 139//177 143//177 222//177 218//177
f 11//178 141//178 145//178 22//178
f 144//179 140//179 221//179 225//179
f 142//180 12//180 23//180 146//180
f 143//181 147//181 226//181 222//181
f 22//182 145//182 149//182 33//182
f 148//183 144//183 225//183 229//183
f 146//184 23//184 34//184 150//184
f 147//185 151//185 230//185 226//185
f 33//186 149//186 153//186 44//186
f 152//187 148//187 229//187 233//187
f 150//188 34//188 45//188 154//188
f 151//189 155//189 234//189 230//189
f 44//190 153//190 160//190 54//190
f 159//191 152//191 233//191 237//191
f 154//192 45//192 163//192 161//192
f 155//193 162//193 238//193 234//193
f 41//194 42//194 52//194 156//194 158//194
f 40//195 41//195 158//195 157//195 51//195
f 156//196 52//196 182//196 178//196
f 51//197 157//197 180//197 176//197
f 54//198 160//198 189//198 186//198
f 188//199 159//199 237//199 265//199
f 162//200 164//200 240//200 238//200
f 45//201 46//201 166//201 163//201
f 164//202 165//202 242//202 240//202
f 46//203 47//203 168//203 166//203
f 167//204 169//204 245//204 243//204
f 47//205 48//205 170//205 168//205
f 169//206 171//206 247//206 245//206
f 48//207 49//207 172//207 170//207
f 171//208 173//208 249//208 247//208
f 49//209 50//209 174//209 172//209
f 173//210 175//210 251//210 249//210
f 50//211 51//211 176//211 174//211
f 175//212 177//212 253//212 251//212
f 177//213 179//213 255//213 253//213
f 179//214 181//214 257//214 255//214
f 52//215 53//215 184//215 182//215
f 183//216 185//216 260//216 258//216
f 53//217 54//217 186//217 184//217
f 185//218 187//218 262//218 260//218
f 187//219 188//219 265//219 262//219
f 193//220 192//220 219//220 55//220
f 195//221 193//221 55//221 56//221
f 197//222 195//222 56//222 57//222
f 199//223 197//223 57//223 58//223
f 201//224 199//224 58//224 59//224
f 203//225 201//225 59//225 60//225
f 205//226 203//226 60//226 61//226
f 207//227 205//227 61//227 62//227
f 209//228 207//228 62//228 63//228
f 211//229 209//229 63//229 64//229
f 213//230 211//230 64//230 65//230
f 217//231 213//231 65//231 220//231
f 55//44 219//44 223//44 66//44
f 220//232 65//232 76//232 224//232
f 66//48 223//48 227//48 77//48
f 224//233 76//233 87//233 228//233
f 77//54 227//54 231//54 88//54
f 228//234 87//234 98//234 232//234
f 88//60 231//60 235//60 99//60
f 232//235 98//235 109//235 236//235
f 99//236 235//236 239//236 241//236
f 236//237 109//237 263//237 264//237
f 100//238 99//238 241//238 244//238
f 101//239 100//239 244//239 246//239
f 102//240 101//240 246//240 248//240
f 103//241 102//241 248//241 250//241
f 104//242 103//242 250//242 252//242
f 105//243 104//243 252//243 254//243
f 106//244 105//244 254//244 256//244
f 107//245 106//245 256//245 259//245
f 108//246 107//246 259//246 261//246
f 109//247 108//247 261//247 263//247
